<?xml version="1.0" standalone="no"?>
<!DOCTYPE svg PUBLIC "-//W3C//DTD SVG 1.1//EN" "http://www.w3.org/Graphics/SVG/1.1/DTD/svg11.dtd" >
<svg>
<metadata>
Created by FontForge 20090622 at Wed Aug 31 02:15:28 2016
 By deploy user
Copyright 1990-1993 Bitstream Inc.  All rights reserved.
</metadata>
<defs>
<font id="Humanist521BT-LightItalic" horiz-adv-x="1024" >
  <font-face 
    font-family="Humanst521 Lt BT"
    font-weight="400"
    font-style="italic"
    font-stretch="normal"
    units-per-em="2048"
    panose-1="2 11 4 2 2 2 4 9 2 4"
    ascent="1638"
    descent="-410"
    x-height="915"
    cap-height="1399"
    bbox="-342 -485 2574 1933"
    underline-thickness="68"
    underline-position="-197"
    slope="-8.5"
    unicode-range="U+0020-U+F002"
  />
<missing-glyph horiz-adv-x="1229" 
d="M102 -362v1806h1024v-1806h-1024zM217 -248h795v1577h-795v-1577z" />
    <glyph glyph-name=".notdef" horiz-adv-x="1229" 
d="M102 -362v1806h1024v-1806h-1024zM217 -248h795v1577h-795v-1577z" />
    <glyph glyph-name=".null" horiz-adv-x="0" 
 />
    <glyph glyph-name="nonmarkingreturn" horiz-adv-x="516" 
 />
    <glyph glyph-name="space" unicode=" " horiz-adv-x="516" 
 />
    <glyph glyph-name="exclam" unicode="!" horiz-adv-x="516" 
d="M250 356h-39l108 1043h125zM236 0h-125l28 190h125z" />
    <glyph glyph-name="quotedbl" unicode="&#x22;" horiz-adv-x="551" 
d="M451 1434v-553h-86v553h86zM186 1434v-553h-86v553h86z" />
    <glyph glyph-name="numbersign" unicode="#" horiz-adv-x="1575" 
d="M979 866h-270l-99 -282h269zM915 1454l-174 -498h271l176 498h110l-174 -498h322l-31 -90h-323l-101 -282h348l-30 -90h-351l-174 -494h-112l176 494h-270l-179 -494h-110l174 494h-334l31 90h336l100 282h-360l28 90h365l176 498h110z" />
    <glyph glyph-name="dollar" unicode="$" horiz-adv-x="1034" 
d="M502 776l78 522h-5q-127 0 -213 -78t-86 -190q0 -78 50 -135t176 -119zM479 94q130 5 213.5 80t83.5 182q0 78 -54.5 146.5t-162.5 126.5zM430 -225h-76l33 223q-89 8 -164.5 32.5t-138.5 65.5l16 105q77 -49 151.5 -75.5t149.5 -31.5l86 576q-170 79 -240.5 162.5
t-70.5 201.5q0 155 115 253t305 104l16 118h78l-18 -120q59 -4 121 -21t129 -49l-15 -90q-59 27 -121 44t-129 23l-86 -555q159 -81 235.5 -173.5t76.5 -205.5q0 -150 -116 -250.5t-302 -109.5z" />
    <glyph glyph-name="percent" unicode="%" horiz-adv-x="1772" 
d="M1036 352q0 -119 81 -201.5t198 -82.5t198.5 83t81.5 201q0 119 -81.5 202t-198.5 83t-198 -82.5t-81 -202.5zM936 352q0 158 110.5 268.5t268.5 110.5t269.5 -110.5t111.5 -268.5t-111.5 -268.5t-269.5 -110.5t-268.5 110.5t-110.5 268.5zM362 -25l938 1446h109
l-940 -1446h-107zM176 1042q0 -119 80.5 -201.5t198.5 -82.5q116 0 198 83t82 201q0 119 -82 202t-198 83q-117 0 -198 -82.5t-81 -202.5zM76 1042q0 159 110 269t269 110q158 0 268.5 -110t110.5 -269q0 -158 -110.5 -268t-268.5 -110q-159 0 -269 110t-110 268z" />
    <glyph glyph-name="ampersand" unicode="&#x26;" horiz-adv-x="1327" 
d="M489 834q158 74 236 154.5t78 170.5q0 81 -53 131.5t-138 50.5q-96 0 -157.5 -62t-61.5 -161q0 -56 23.5 -124.5t72.5 -159.5zM782 205q-85 102 -166 221.5t-174 282.5q-149 -74 -223 -162t-74 -193q0 -121 90 -202.5t224 -81.5q84 0 164 33.5t159 101.5zM1229 -18
q-21 -3 -31.5 -4t-19.5 -1q-78 0 -159 37.5t-167 112.5q-92 -79 -182.5 -116.5t-192.5 -37.5q-194 0 -315 104t-121 265q0 136 88.5 247.5t267.5 198.5q-49 95 -75.5 181.5t-26.5 152.5q0 131 91.5 218t229.5 87q126 0 204.5 -76t78.5 -198q0 -115 -91 -216.5t-269 -184.5
q102 -180 172.5 -285.5t140.5 -185.5q83 83 153.5 184t131.5 223h116q-57 -124 -137.5 -245t-189.5 -244q76 -66 155 -97.5t166 -31.5h33z" />
    <glyph glyph-name="quotesingle" unicode="'" horiz-adv-x="285" 
d="M186 1434v-553h-86v553h86z" />
    <glyph glyph-name="parenleft" unicode="(" horiz-adv-x="618" 
d="M573 1421h117q-269 -298 -391.5 -564.5t-122.5 -549.5q0 -181 47 -370t152 -422h-96q-100 199 -150.5 400.5t-50.5 399.5q0 288 122 561t373 545z" />
    <glyph glyph-name="parenright" unicode=")" horiz-adv-x="618" 
d="M-27 -483h-116q269 298 391.5 563.5t122.5 548.5q0 181 -47 370t-152 422h96q100 -199 150.5 -400.5t50.5 -399.5q0 -287 -122 -559t-374 -545z" />
    <glyph glyph-name="asterisk" unicode="*" horiz-adv-x="905" 
d="M453 608l39 379l-240 -297l-74 72l297 242l-379 -39v100l379 -39l-297 242l74 71l240 -297l-39 379h102l-41 -379l242 297l71 -71l-297 -242l381 39v-100l-381 39l297 -242l-71 -72l-242 297l41 -379h-102z" />
    <glyph glyph-name="plus" unicode="+" horiz-adv-x="1706" 
d="M893 1221v-570h559v-82h-559v-569h-80v569h-559v82h559v570h80z" />
    <glyph glyph-name="comma" unicode="," horiz-adv-x="516" 
d="M223 0q-10 -74 -51.5 -130t-118.5 -99v51q48 43 71 85.5t23 86.5v6h-45l29 190h121z" />
    <glyph glyph-name="hyphen" unicode="-" horiz-adv-x="692" 
d="M66 418l14 88h473l-14 -88h-473z" />
    <glyph glyph-name="period" unicode="." horiz-adv-x="516" 
d="M225 0h-125l29 190h125z" />
    <glyph glyph-name="slash" unicode="/" horiz-adv-x="418" 
d="M414 1421h96l-561 -1611h-99z" />
    <glyph glyph-name="zero" unicode="0" horiz-adv-x="1034" 
d="M70 485q0 193 49.5 382t136.5 327q69 110 161.5 169.5t192.5 59.5q164 0 259.5 -136.5t95.5 -375.5q0 -195 -49 -382t-136 -324q-69 -110 -161.5 -170t-194.5 -60q-163 0 -258.5 137.5t-95.5 372.5zM606 1335q-79 0 -152 -53t-128 -152q-73 -126 -114.5 -299.5
t-41.5 -349.5q0 -195 69.5 -307.5t188.5 -112.5q78 0 150.5 54t130.5 155q71 128 112 300t41 345q0 198 -68 309t-188 111z" />
    <glyph glyph-name="one" unicode="1" horiz-adv-x="1034" 
d="M461 0h-96l208 1399h97z" />
    <glyph glyph-name="two" unicode="2" horiz-adv-x="1034" 
d="M831 0h-813l517 608q118 139 182.5 270.5t64.5 231.5q0 96 -65.5 158.5t-165.5 62.5q-74 0 -154.5 -31.5t-179.5 -99.5l4 100q84 63 166.5 93t167.5 30q147 0 242.5 -89t95.5 -226q0 -109 -76.5 -257.5t-218.5 -313.5l-373 -437h615z" />
    <glyph glyph-name="three" unicode="3" horiz-adv-x="1034" 
d="M6 88l12 88q103 -58 185 -85.5t151 -27.5q154 0 262.5 103.5t108.5 249.5q0 133 -79.5 203.5t-244.5 82.5l9 66h30q165 0 266 84.5t101 220.5q0 118 -79 192t-204 74q-70 0 -143.5 -21.5t-155.5 -66.5l13 99q69 36 135.5 53.5t132.5 17.5q181 0 288 -93.5t107 -250.5
q0 -122 -73.5 -215.5t-206.5 -140.5q97 -38 151.5 -120t54.5 -189q0 -186 -133.5 -310.5t-335.5 -124.5q-88 0 -175 27.5t-177 83.5z" />
    <glyph glyph-name="four" unicode="4" horiz-adv-x="1034" 
d="M621 551l94 627l-527 -627h433zM641 0h-102l71 461h-555l4 59l746 879h45l-127 -848h225l-12 -90h-225z" />
    <glyph glyph-name="five" unicode="5" horiz-adv-x="1034" 
d="M8 90l43 80q83 -51 159 -75.5t148 -24.5q175 0 287.5 113.5t112.5 287.5q0 150 -89.5 238t-240.5 88q-37 0 -81.5 -8t-96.5 -23l94 633h596l-12 -96h-502l-65 -435q28 5 54 8t48 3q178 0 286.5 -111.5t108.5 -294.5q0 -216 -141.5 -357t-360.5 -141q-91 0 -176 28
t-172 87z" />
    <glyph glyph-name="six" unicode="6" horiz-adv-x="1034" 
d="M635 1399h108l-424 -643q70 47 136.5 70.5t128.5 23.5q147 0 234 -89t87 -239q0 -75 -25.5 -156t-74.5 -161q-68 -109 -171 -170.5t-218 -61.5q-161 0 -261 106t-100 275q0 92 43.5 200t134.5 245zM565 764q-163 0 -283 -121.5t-120 -288.5q0 -124 75 -205t189 -81
q63 0 121.5 27t109.5 79q66 66 107 162t41 184q0 112 -65 178t-175 66z" />
    <glyph glyph-name="seven" unicode="7" horiz-adv-x="1034" 
d="M291 0h-105l654 1313h-670l8 86h819z" />
    <glyph glyph-name="eight" unicode="8" horiz-adv-x="1034" 
d="M434 57q156 0 266.5 109t110.5 260q0 125 -84 199.5t-223 74.5q-159 0 -262 -98t-103 -250q0 -124 85.5 -209.5t209.5 -85.5zM295 1032q0 -103 76 -174.5t190 -71.5q129 0 213 85.5t84 215.5q0 105 -74.5 174.5t-189.5 69.5q-127 0 -213 -86.5t-86 -212.5zM694 737
q106 -44 159.5 -122t53.5 -187q0 -192 -136 -322.5t-343 -130.5q-171 0 -277 107t-106 276q0 157 83 260.5t237 137.5q-93 49 -136 116.5t-43 163.5q0 159 124.5 272t301.5 113q148 0 247 -97.5t99 -242.5q0 -122 -67 -210t-197 -134z" />
    <glyph glyph-name="nine" unicode="9" horiz-adv-x="1034" 
d="M387 0h-108l423 641q-69 -47 -135.5 -70.5t-128.5 -23.5q-148 0 -232.5 88.5t-84.5 243.5q0 109 41 212t117 183q68 73 151 111t174 38q158 0 258.5 -104t100.5 -268q0 -97 -42 -205t-135 -246zM461 639q160 0 277.5 123.5t117.5 292.5q0 126 -70.5 203t-185.5 77
q-62 0 -120 -26.5t-109 -79.5q-65 -66 -104.5 -161.5t-39.5 -184.5q0 -112 63 -178t171 -66z" />
    <glyph glyph-name="colon" unicode=":" horiz-adv-x="516" 
d="M330 735h-125l28 189h125zM219 0h-125l29 190h125z" />
    <glyph glyph-name="semicolon" unicode=";" horiz-adv-x="516" 
d="M336 735h-125l29 189h125zM221 0q-10 -71 -51 -126.5t-119 -102.5v51q49 44 71.5 87t22.5 91h-47l29 190h123z" />
    <glyph glyph-name="less" unicode="&#x3c;" horiz-adv-x="1706" 
d="M1442 1034l-1045 -424l1045 -424v-88l-1178 482v61l1178 483v-90z" />
    <glyph glyph-name="equal" unicode="=" horiz-adv-x="1706" 
d="M1452 469v-82h-1198v82h1198zM1452 831v-79h-1198v79h1198z" />
    <glyph glyph-name="greater" unicode="&#x3e;" horiz-adv-x="1706" 
d="M1442 641v-61l-1178 -482v88l1045 424l-1045 424v90z" />
    <glyph glyph-name="question" unicode="?" horiz-adv-x="772" 
d="M285 360h-62q4 196 249 448l7 7l9 9q188 195 188 306q0 89 -61.5 148t-153.5 59q-54 0 -116 -28.5t-146 -91.5l6 100q69 54 135.5 80t132.5 26q123 0 208 -78t85 -190q0 -92 -42.5 -171.5t-172.5 -203.5l-11 -10q-235 -224 -255 -410zM256 0h-125l29 190h125z" />
    <glyph glyph-name="at" unicode="@" horiz-adv-x="2048" 
d="M1303 827l61 129h80l-137 -553q-10 -36 -15.5 -64.5t-5.5 -43.5q0 -44 30.5 -68t86.5 -24q48 0 100 19.5t103 56.5q101 74 162 207t61 282q0 273 -199.5 439.5t-525.5 166.5q-168 0 -310.5 -48t-258.5 -144q-154 -128 -232 -297t-78 -375q0 -327 221.5 -522t591.5 -195
q161 0 324 50.5t299 142.5l29 -45q-146 -110 -308.5 -165t-339.5 -55q-187 0 -343 46.5t-277 138.5q-152 115 -226.5 267.5t-74.5 348.5q0 162 50.5 307t147.5 265q144 175 345.5 265.5t449.5 90.5q160 0 304.5 -44t248.5 -124q128 -98 194 -226.5t66 -277.5
q0 -169 -63 -308t-181 -232q-67 -54 -145.5 -82.5t-159.5 -28.5q-95 0 -143.5 36.5t-48.5 108.5q0 12 3 34q1 3 1 5q-49 -88 -125 -136t-166 -48q-154 0 -233.5 83t-79.5 243q0 228 134.5 386t326.5 158q95 0 160 -43t96 -127zM1219 467l63 254q-22 99 -81.5 151t-151.5 52
q-152 0 -255.5 -138t-103.5 -340q0 -115 57.5 -180t159.5 -65q111 0 196 72.5t116 193.5z" />
    <glyph glyph-name="A" unicode="A" horiz-adv-x="1075" 
d="M20 0h-108l651 1399h84l334 -1399h-98l-121 512h-510zM299 606h442l-149 639z" />
    <glyph glyph-name="B" unicode="B" horiz-adv-x="1114" 
d="M57 0l209 1399h51q273 0 410 -79t137 -237q0 -87 -43.5 -162.5t-128.5 -136.5q142 -42 217.5 -133.5t75.5 -218.5q0 -99 -42 -184.5t-118 -143.5q-74 -56 -167 -80t-312 -24h-289zM172 94h274q210 0 325.5 90.5t115.5 251.5q0 131 -93.5 207t-254.5 76h-273zM281 811h159
q155 0 242.5 71t87.5 195q0 123 -102.5 183.5t-309.5 60.5z" />
    <glyph glyph-name="C" unicode="C" horiz-adv-x="1174" 
d="M1034 86q-105 -56 -207 -83.5t-204 -27.5q-238 0 -394.5 172.5t-156.5 438.5q0 169 75.5 332.5t212.5 289.5q112 102 260 157.5t310 55.5q56 0 117 -5.5t124 -16.5l-14 -86q-63 10 -112 15t-89 5q-159 0 -296 -52t-242 -153q-112 -107 -176 -251t-64 -289
q0 -228 129 -371t334 -143q94 0 195.5 34t218.5 105z" />
    <glyph glyph-name="D" unicode="D" horiz-adv-x="1319" 
d="M166 90h250q166 0 279.5 27.5t195.5 87.5q109 79 168 202.5t59 272.5q0 142 -54 268t-155 215q-86 76 -194 111t-256 35h-111zM51 0l209 1399h184q149 0 260.5 -26t196.5 -81q157 -98 242.5 -258.5t85.5 -357.5q0 -156 -61.5 -290.5t-174.5 -227.5q-102 -85 -231 -121.5
t-377 -36.5h-334z" />
    <glyph glyph-name="E" unicode="E" horiz-adv-x="1038" 
d="M993 0h-932l209 1399h719l-14 -86h-621l-82 -551h586l-14 -88h-586l-86 -580h836z" />
    <glyph glyph-name="F" unicode="F" horiz-adv-x="967" 
d="M61 0l209 1399h719l-14 -86h-625l-82 -551h590l-14 -88h-588l-102 -674h-93z" />
    <glyph glyph-name="G" unicode="G" horiz-adv-x="1278" 
d="M1186 586l-60 -473q-116 -70 -229.5 -104t-228.5 -34q-261 0 -426.5 172.5t-165.5 446.5q0 184 81.5 347t231.5 280q133 102 288.5 151t348.5 49q56 0 121.5 -5.5t142.5 -16.5l-10 -90q-64 10 -128.5 15t-129.5 5q-185 0 -340.5 -53.5t-269.5 -157.5
q-111 -101 -174.5 -241t-63.5 -283q0 -235 137 -379.5t361 -144.5q91 0 180.5 26.5t179.5 79.5l41 324h-328l13 86h428z" />
    <glyph glyph-name="H" unicode="H" horiz-adv-x="1440" 
d="M61 0l209 1399h101l-97 -641h908l94 641h102l-209 -1399h-100l98 668h-905l-100 -668h-101z" />
    <glyph glyph-name="I" unicode="I" horiz-adv-x="432" 
d="M166 0h-105l209 1399h105z" />
    <glyph glyph-name="J" unicode="J" horiz-adv-x="446" 
d="M182 -25q-21 -143 -41.5 -214.5t-50.5 -110.5q-45 -59 -111 -92t-141 -33q-22 0 -54.5 6t-80.5 18l-22 109q44 -17 77 -25t60 -8q116 0 170 59t78 218l219 1497h104z" />
    <glyph glyph-name="K" unicode="K" horiz-adv-x="1085" 
d="M168 0h-107l209 1399h107l-88 -592l706 592h138l-732 -627l699 -772h-115l-704 758z" />
    <glyph glyph-name="L" unicode="L" horiz-adv-x="854" 
d="M170 0h-109l209 1399h109l-195 -1305h633l-14 -94h-633z" />
    <glyph glyph-name="M" unicode="M" horiz-adv-x="1651" 
d="M76 0h-103l445 1399h88l262 -1178l602 1178h88l19 -1399h-93l-16 1198l-610 -1198h-39l-266 1196z" />
    <glyph glyph-name="N" unicode="N" horiz-adv-x="1407" 
d="M154 0h-101l209 1399h49l762 -1180l172 1180h105l-207 -1399h-45l-768 1192z" />
    <glyph glyph-name="O" unicode="O" horiz-adv-x="1313" 
d="M70 547q0 178 53.5 345.5t152.5 297.5q85 112 207 172.5t265 60.5q228 0 361.5 -154.5t133.5 -420.5q0 -175 -53.5 -341.5t-151.5 -295.5q-89 -117 -207.5 -176.5t-263.5 -59.5q-232 0 -364.5 152.5t-132.5 419.5zM745 1333q-117 0 -218.5 -53.5t-170.5 -151.5
q-84 -118 -130 -270t-46 -311q0 -227 102 -355.5t283 -128.5q119 0 220 54t173 155q83 118 129 268.5t46 309.5q0 227 -103 355t-285 128z" />
    <glyph glyph-name="P" unicode="P" horiz-adv-x="977" 
d="M53 0l221 1399h197q115 0 181 -12t114 -39q92 -54 138 -136.5t46 -191.5q0 -191 -128 -299.5t-355 -108.5h-213l-90 -612h-111zM268 711h170q204 0 301 74.5t97 232.5q0 147 -83 216t-259 69h-136z" />
    <glyph glyph-name="Q" unicode="Q" horiz-adv-x="1313" 
d="M745 1333q-117 0 -218.5 -53.5t-170.5 -151.5q-84 -118 -130 -270t-46 -311q0 -227 102 -355.5t283 -128.5q119 0 220 54t173 155q83 118 129 268.5t46 309.5q0 227 -103 355t-285 128zM500 -25q-202 24 -316 176.5t-114 397.5q0 177 53 344.5t151 296.5q86 113 208 173
t266 60q228 0 361.5 -154.5t133.5 -420.5q0 -175 -53.5 -341.5t-151.5 -295.5q-79 -106 -184 -164.5t-236 -71.5q63 -126 155 -195t198 -69q110 0 188.5 78.5t114.5 224.5q1 -10 1.5 -21t0.5 -34q0 -158 -90 -253t-238 -95q-145 0 -263.5 96t-184.5 268z" />
    <glyph glyph-name="R" unicode="R" horiz-adv-x="1034" 
d="M270 721h164q210 0 313 76.5t103 232.5q0 131 -85.5 202t-244.5 71h-164zM162 0h-101l209 1399h230q224 0 343.5 -95t119.5 -274q0 -148 -85 -255t-229 -140q37 -36 78 -111l4 -8l293 -516h-121q-17 23 -32.5 47.5t-28.5 48.5l-230 416q-39 72 -76 93.5t-116 21.5h-164z
" />
    <glyph glyph-name="S" unicode="S" horiz-adv-x="811" 
d="M25 68l36 90q72 -45 135.5 -66.5t120.5 -21.5q124 0 207.5 81.5t83.5 200.5q0 129 -199 311q-8 7 -12 11q-164 150 -213 230.5t-49 168.5q0 148 111.5 248t279.5 100q55 0 115.5 -17.5t132.5 -55.5l-31 -84q-64 35 -119.5 52t-105.5 17q-123 0 -202.5 -75.5t-79.5 -190.5
q0 -117 199 -291q28 -24 42 -37q145 -128 190.5 -202t45.5 -156q0 -180 -110 -293t-286 -113q-73 0 -145.5 23t-146.5 70z" />
    <glyph glyph-name="T" unicode="T" horiz-adv-x="938" 
d="M434 0h-100l192 1303h-415l14 96h893l-10 -96h-383z" />
    <glyph glyph-name="U" unicode="U" horiz-adv-x="1350" 
d="M264 1399h103l-117 -770q-13 -90 -18 -140t-5 -90q0 -148 106 -242t273 -94q177 0 301.5 128t155.5 346l123 862h98l-113 -819q-41 -299 -190.5 -452t-398.5 -153q-205 0 -331 121.5t-126 317.5q0 27 3.5 61.5t14.5 116.5z" />
    <glyph glyph-name="V" unicode="V" horiz-adv-x="924" 
d="M381 -25h-43l-277 1424h95l229 -1192l537 1192h102z" />
    <glyph glyph-name="W" unicode="W" horiz-adv-x="1788" 
d="M385 205l543 1194h90l233 -1194l535 1194h102l-641 -1424h-45l-248 1278l-573 -1278h-43l-277 1424h93z" />
    <glyph glyph-name="X" unicode="X" horiz-adv-x="1339" 
d="M66 0h-129l688 729l-459 670h115l413 -600l574 600h135l-653 -680l495 -719h-112l-453 647z" />
    <glyph glyph-name="Y" unicode="Y" horiz-adv-x="860" 
d="M362 0h-98l115 727l-334 672h102l295 -574l451 574h117l-523 -672z" />
    <glyph glyph-name="Z" unicode="Z" horiz-adv-x="1327" 
d="M1159 10h-1167v33l1163 1253h-944l18 93h1110v-35l-1163 -1252h993z" />
    <glyph glyph-name="bracketleft" unicode="[" horiz-adv-x="618" 
d="M264 1399h434l-16 -94h-340l-246 -1655h355l-17 -101h-446z" />
    <glyph glyph-name="backslash" unicode="\" horiz-adv-x="418" 
d="M279 -190l-220 1611h99l217 -1611h-96z" />
    <glyph glyph-name="bracketright" unicode="]" horiz-adv-x="618" 
d="M270 -451h-432l15 95h340l247 1654h-356l16 101h447z" />
    <glyph glyph-name="asciicircum" unicode="^" horiz-adv-x="2048" 
d="M1081 1458l541 -557h-125l-473 469l-475 -469h-125l539 557h118z" />
    <glyph glyph-name="underscore" unicode="_" 
d="M1024 -403v-80h-1024v80h1024z" />
    <glyph glyph-name="grave" unicode="`" 
d="M664 1055h-72l-279 348h119z" />
    <glyph glyph-name="a" unicode="a" horiz-adv-x="952" 
d="M731 0h-96l14 98q-78 -60 -156 -89t-159 -29q-141 0 -230.5 102t-89.5 266q0 121 52.5 232.5t148.5 193.5q91 79 203 114.5t272 35.5h178zM668 213l92 622q-35 3 -53 4t-31 1q-251 0 -406 -138t-155 -356q0 -132 66.5 -210.5t176.5 -78.5q77 0 154.5 39.5t155.5 116.5z
" />
    <glyph glyph-name="b" unicode="b" horiz-adv-x="952" 
d="M18 0l209 1399h90l-84 -570q77 60 151.5 89.5t147.5 29.5q149 0 241.5 -102t92.5 -266q0 -172 -101.5 -318t-264.5 -207q-77 -28 -177.5 -41.5t-236.5 -13.5h-68zM215 711l-92 -629h39q281 0 442.5 137.5t161.5 374.5q0 123 -67 197.5t-177 74.5q-77 0 -155.5 -39.5
t-151.5 -115.5z" />
    <glyph glyph-name="c" unicode="c" horiz-adv-x="846" 
d="M711 137l-13 -94q-72 -31 -138 -46t-126 -15q-172 0 -280.5 115t-108.5 298q0 97 34 191.5t97 171.5q76 93 181 140.5t235 47.5q37 0 84 -7.5t104 -23.5l-14 -94q-56 15 -100.5 22t-81.5 7q-188 0 -314.5 -127.5t-126.5 -316.5q0 -153 87 -245.5t229 -92.5q53 0 115.5 17
t136.5 52z" />
    <glyph glyph-name="d" unicode="d" horiz-adv-x="961" 
d="M639 70l114 786q-44 5 -66.5 6.5t-41.5 1.5q-234 0 -380 -128t-146 -330q0 -168 103 -255.5t300 -87.5q27 0 57 2t60 5zM729 -4q-72 -6 -128.5 -9t-96.5 -3q-230 0 -355.5 111.5t-125.5 316.5q0 136 71.5 256.5t196.5 191.5q67 40 154.5 60t193.5 20q31 0 62.5 -1.5
t63.5 -4.5l71 465h100z" />
    <glyph glyph-name="e" unicode="e" horiz-adv-x="893" 
d="M737 178l-2 -98q-66 -51 -137.5 -75.5t-153.5 -24.5q-188 0 -303.5 124t-115.5 326q0 219 125.5 366.5t308.5 147.5q161 0 249.5 -99.5t88.5 -281.5q0 -28 -0.5 -41.5t-1.5 -25.5l-662 -1q-1 -11 -1.5 -22.5t-0.5 -34.5q0 -173 87.5 -274t236.5 -101q64 0 134 28.5
t148 86.5zM705 569v21q0 124 -65.5 197t-174.5 73q-114 0 -199.5 -78t-118.5 -213h558z" />
    <glyph glyph-name="f" unicode="f" horiz-adv-x="461" 
d="M96 -406h-92l164 1254h-186l6 76h192l17 118q27 195 115.5 283t254.5 88q41 0 83 -7.5t91 -23.5l-24 -77q-37 15 -72.5 22.5t-71.5 7.5q-118 0 -187 -60.5t-87 -180.5l-27 -170h226l-15 -76h-217z" />
    <glyph glyph-name="g" unicode="g" horiz-adv-x="817" 
d="M322 -33q-157 -28 -240.5 -77.5t-83.5 -114.5q0 -72 79 -122t199 -50q149 0 240.5 50.5t91.5 129.5q0 63 -61 103.5t-225 80.5zM352 338q118 0 198.5 77.5t80.5 192.5q0 104 -63 170t-162 66q-122 0 -198.5 -78t-76.5 -201q0 -103 60.5 -165t160.5 -62zM225 -2
q-90 21 -136 59t-46 90q0 51 46 88t130 54q-91 46 -136.5 116t-45.5 164q0 169 105.5 262t297.5 93h404v-74h-236q57 -40 86 -99.5t29 -136.5q0 -121 -66.5 -208.5t-185.5 -122.5q-59 -17 -142.5 -29t-102.5 -18q-50 -17 -73.5 -36t-23.5 -44q0 -54 171 -98q61 -15 95 -25
q180 -52 243.5 -105t63.5 -139q0 -111 -120.5 -183.5t-313.5 -72.5q-155 0 -254.5 67t-99.5 169q0 76 74 131t237 98z" />
    <glyph glyph-name="h" unicode="h" horiz-adv-x="934" 
d="M18 0l209 1399h97l-95 -615q90 82 177 122t176 40q106 0 165.5 -66t59.5 -186q0 -18 -2.5 -45.5t-11.5 -95.5l-82 -553h-97l86 577q5 33 8 64.5t3 58.5q0 79 -37.5 121.5t-106.5 42.5q-85 0 -174.5 -49.5t-179.5 -146.5l-100 -668h-95z" />
    <glyph glyph-name="i" unicode="i" horiz-adv-x="362" 
d="M117 0h-97l138 924h96zM281 1165h-95l21 144h96z" />
    <glyph glyph-name="j" unicode="j" horiz-adv-x="373" 
d="M317 1165h-96l23 144h94zM139 -16q-41 -282 -109 -366.5t-212 -84.5q-19 0 -44 4.5t-56 13.5l22 84q23 -6 46 -10t40 -4q93 0 140 69.5t83 307.5l137 926h95z" />
    <glyph glyph-name="k" unicode="k" horiz-adv-x="766" 
d="M186 508l416 416h137l-446 -435l485 -489h-123l-477 475l-67 -475h-91l209 1399h90z" />
    <glyph glyph-name="l" unicode="l" horiz-adv-x="362" 
d="M111 0h-91l209 1399h90z" />
    <glyph glyph-name="m" unicode="m" horiz-adv-x="1483" 
d="M18 0l138 924h96l-23 -140q86 82 168.5 122t167.5 40q92 0 143.5 -45t65.5 -137q90 91 177 136.5t171 45.5q107 0 166.5 -62.5t59.5 -176.5q0 -25 -3.5 -60t-11.5 -94l-80 -553h-92l84 578q7 47 9.5 78t2.5 49q0 74 -37 116.5t-102 42.5q-82 0 -168.5 -50t-171.5 -146
l-88 -668h-94l84 578q6 43 9 72.5t3 45.5q0 79 -37 123.5t-102 44.5q-83 0 -169 -50t-171 -146l-100 -668h-95z" />
    <glyph glyph-name="n" unicode="n" horiz-adv-x="934" 
d="M18 0l138 924h96l-23 -140q89 81 174.5 121.5t167.5 40.5q113 0 174.5 -62.5t61.5 -176.5q0 -27 -3.5 -66.5t-10.5 -87.5l-82 -553h-97l86 578q7 36 10 68t3 59q0 79 -39 119t-115 40q-81 0 -170.5 -50.5t-175.5 -145.5l-100 -668h-95z" />
    <glyph glyph-name="o" unicode="o" horiz-adv-x="879" 
d="M23 377q0 241 128.5 404t311.5 163q146 0 233.5 -106.5t87.5 -286.5q0 -244 -126 -406.5t-310 -162.5q-152 0 -238.5 104.5t-86.5 290.5zM453 848q-136 0 -233 -136t-97 -335q0 -144 60.5 -223.5t168.5 -79.5q138 0 234 136t96 341q0 138 -62 217.5t-167 79.5z" />
    <glyph glyph-name="p" unicode="p" horiz-adv-x="936" 
d="M72 -465h-97l181 1202q-56 -49 -106.5 -116.5t-65.5 -67.5q-3 0 -4.5 1t-2.5 3q0 39 54.5 115.5t140.5 152.5l41 285h96l-35 -227q46 30 99.5 44.5t120.5 14.5q138 0 237.5 -120.5t99.5 -295.5q0 -242 -148 -392t-388 -150q-28 0 -64 3.5t-86 12.5zM152 63l79 -7.5
t43 -2.5q211 0 333 125.5t122 341.5q0 157 -75.5 251.5t-198.5 94.5q-53 0 -100 -15t-91 -46z" />
    <glyph glyph-name="q" unicode="q" horiz-adv-x="952" 
d="M657 -465h-92l84 561q-85 -62 -156 -91.5t-139 -29.5q-150 0 -243 103t-93 270q0 123 52 235.5t147 196.5q93 82 208 123t251 41q38 0 85.5 -3.5t104.5 -10.5zM668 215l94 639q-19 2 -39.5 3t-56.5 1q-236 0 -391.5 -146.5t-155.5 -365.5q0 -135 64 -211t177 -76
q78 0 156 40t152 116z" />
    <glyph glyph-name="r" unicode="r" horiz-adv-x="590" 
d="M111 0h-93l140 924h90l-37 -242q120 151 191.5 206.5t136.5 55.5q22 0 43.5 -6.5t41.5 -19.5l-3 -80q-21 12 -42 18t-40 6q-38 0 -79.5 -24.5t-101.5 -81.5q-89 -88 -128 -154.5t-52 -146.5z" />
    <glyph glyph-name="s" unicode="s" horiz-adv-x="694" 
d="M-39 119l47 71q68 -66 136 -98.5t139 -32.5q88 0 145 45t57 113q0 91 -192 218q-9 6 -14 9q-149 99 -190.5 153t-41.5 120q0 98 80.5 161.5t208.5 63.5q78 0 149.5 -21.5t139.5 -66.5l-17 -92q-77 51 -147 76.5t-131 25.5q-84 0 -137.5 -39.5t-53.5 -99.5q0 -73 190 -198
q9 -6 13 -9q157 -103 200.5 -162t43.5 -135q0 -105 -84 -172t-217 -67q-98 0 -179 34t-145 103z" />
    <glyph glyph-name="t" unicode="t" horiz-adv-x="614" 
d="M227 348q-5 -40 -7.5 -71t-2.5 -54q0 -84 35 -126t104 -42q39 0 84.5 18t102.5 56v-80q-49 -35 -97.5 -52t-99.5 -17q-104 0 -163.5 62.5t-59.5 172.5q0 37 3.5 78.5t10.5 84.5l70 474h-166l10 72h166l31 200h94l-31 -200h254l-10 -72h-254z" />
    <glyph glyph-name="u" unicode="u" horiz-adv-x="934" 
d="M846 928l-139 -928h-97l23 143q-91 -83 -178 -123t-174 -40q-106 0 -165 66t-59 185q0 24 4 60.5t11 81.5l82 555h96l-86 -580q-6 -40 -9 -71t-3 -54q0 -77 38 -119.5t107 -42.5q84 0 174 50.5t180 148.5l99 668h96z" />
    <glyph glyph-name="v" unicode="v" horiz-adv-x="733" 
d="M256 -18h-35l-209 942h88l166 -740l400 740h86z" />
    <glyph glyph-name="w" unicode="w" horiz-adv-x="1161" 
d="M227 -18h-34l-216 942h91l165 -740l367 740h33l135 -740l375 740h88l-475 -942h-37l-133 720z" />
    <glyph glyph-name="x" unicode="x" horiz-adv-x="879" 
d="M63 0h-114l442 489l-252 435h105l207 -367l331 367h117l-401 -445l276 -479h-100l-238 410z" />
    <glyph glyph-name="y" unicode="y" horiz-adv-x="782" 
d="M35 -465h-98l262 492l-168 897h88l143 -774l412 774h98z" />
    <glyph glyph-name="z" unicode="z" horiz-adv-x="877" 
d="M717 10h-803v31l776 790h-610l16 84h754v-53l-756 -766h633z" />
    <glyph glyph-name="braceleft" unicode="{" 
d="M848 1389h-37q-135 0 -182 -51.5t-47 -213.5v-241q0 -175 -43 -248t-152 -105q109 -32 152 -104t43 -248v-241q0 -162 46.5 -212.5t180.5 -50.5h39v-88h-43q-189 0 -257.5 74.5t-68.5 300.5v240q0 158 -58 222t-200 64q-7 0 -21.5 -1t-23.5 -1v90q10 -1 20.5 -1.5
t28.5 -0.5q139 0 196.5 64.5t57.5 222.5v240q0 227 68.5 302t257.5 75h43v-88z" />
    <glyph glyph-name="bar" unicode="|" 
d="M557 1565v-2048h-90v2048h90z" />
    <glyph glyph-name="braceright" unicode="}" 
d="M545 1100v-240q0 -158 58 -222.5t200 -64.5q7 0 21.5 1t23.5 1v-90q-9 0 -23.5 1t-21.5 1q-142 0 -200 -64t-58 -222v-240q0 -226 -68.5 -300.5t-257.5 -74.5h-43v88h39q134 0 180.5 50.5t46.5 212.5v241q0 174 43.5 247t153.5 105q-110 32 -153.5 105t-43.5 248v241
q0 162 -47 213.5t-182 51.5h-37v88h43q189 0 257.5 -75t68.5 -302z" />
    <glyph glyph-name="asciitilde" unicode="~" horiz-adv-x="1706" 
d="M1530 647q-106 -74 -202 -110.5t-185 -36.5q-99 0 -266 61q-16 6 -22 8q-12 4 -33 12q-167 60 -257 60q-83 0 -175 -37.5t-212 -122.5v92q105 74 201 110t186 36q100 0 271 -61q12 -5 19 -7l27 -10q168 -61 261 -61q83 0 175 37.5t212 121.5v-92z" />
    <glyph glyph-name="Adieresis" unicode="&#xc4;" horiz-adv-x="1075" 
d="M20 0h-108l651 1399h84l334 -1399h-98l-121 512h-510zM299 606h442l-149 639zM768 1616l22 147h131l-20 -147h-133zM438 1616l20 147h133l-22 -147h-131z" />
    <glyph glyph-name="Aring" unicode="&#xc5;" horiz-adv-x="1075" 
d="M453 1698q0 -67 45 -111.5t112 -44.5t112.5 44.5t45.5 111.5t-45.5 113.5t-112.5 46.5t-112 -46t-45 -114zM377 1700q0 98 67.5 165.5t165.5 67.5q99 0 166.5 -67.5t67.5 -165.5t-67.5 -166t-166.5 -68q-98 0 -165.5 68t-67.5 166zM299 606h442l-151 639zM20 0h-108
l651 1399h84l334 -1399h-98l-121 512h-510z" />
    <glyph glyph-name="Ccedilla" unicode="&#xc7;" horiz-adv-x="1174" 
d="M1034 86q-105 -56 -207 -83.5t-204 -27.5q-238 0 -394.5 172.5t-156.5 438.5q0 169 75.5 332.5t212.5 289.5q112 102 260 157.5t310 55.5q56 0 117 -5.5t124 -16.5l-14 -86q-63 10 -112 15t-89 5q-159 0 -296 -52t-242 -153q-112 -107 -176 -251t-64 -289
q0 -228 129 -371t334 -143q94 0 195.5 34t218.5 105zM297 -412l23 64q64 -18 116 -26.5t95 -8.5q69 0 107 29.5t38 83.5q0 51 -37.5 73.5t-124.5 22.5q-19 0 -30 -0.5t-20 -1.5l57 176h59l-37 -113h23q95 0 144.5 -38.5t49.5 -112.5q0 -87 -58 -138t-157 -51
q-45 0 -107 10.5t-141 30.5z" />
    <glyph glyph-name="Eacute" unicode="&#xc9;" horiz-adv-x="1038" 
d="M993 0h-932l209 1399h719l-14 -86h-621l-82 -551h586l-14 -88h-586l-86 -580h836zM530 1534l238 348h119l-277 -348h-80z" />
    <glyph glyph-name="Ntilde" unicode="&#xd1;" horiz-adv-x="1407" 
d="M154 0h-101l209 1399h49l762 -1180l172 1180h105l-207 -1399h-45l-768 1192zM1104 1779q-30 -83 -70.5 -123t-95.5 -40q-15 0 -31 2t-31 6l-76 20l-22 6q-27 7 -35 7q-30 0 -52 -17t-38 -53h-64q29 81 70 122.5t94 41.5q11 0 26.5 -2.5t38.5 -7.5l75 -21q23 -6 35.5 -8
t21.5 -2q32 0 53.5 17t35.5 52h65z" />
    <glyph glyph-name="Odieresis" unicode="&#xd6;" horiz-adv-x="1313" 
d="M70 547q0 178 53.5 345.5t152.5 297.5q85 112 207 172.5t265 60.5q228 0 361.5 -154.5t133.5 -420.5q0 -175 -53.5 -341.5t-151.5 -295.5q-89 -117 -207.5 -176.5t-263.5 -59.5q-232 0 -364.5 152.5t-132.5 419.5zM745 1333q-117 0 -218.5 -53.5t-170.5 -151.5
q-84 -118 -130 -270t-46 -311q0 -227 102 -355.5t283 -128.5q119 0 220 54t173 155q83 118 129 268.5t46 309.5q0 227 -103 355t-285 128zM889 1616l22 147h131l-20 -147h-133zM559 1616l20 147h133l-22 -147h-131z" />
    <glyph glyph-name="Udieresis" unicode="&#xdc;" horiz-adv-x="1350" 
d="M264 1399h103l-117 -770q-13 -90 -18 -140t-5 -90q0 -148 106 -242t273 -94q177 0 301.5 128t155.5 346l123 862h98l-113 -819q-41 -299 -190.5 -452t-398.5 -153q-205 0 -331 121.5t-126 317.5q0 27 3.5 61.5t14.5 116.5zM908 1616l22 147h131l-20 -147h-133zM578 1616
l20 147h133l-22 -147h-131z" />
    <glyph glyph-name="aacute" unicode="&#xe1;" horiz-adv-x="952" 
d="M731 0h-96l14 98q-78 -60 -156 -89t-159 -29q-141 0 -230.5 102t-89.5 266q0 121 52.5 232.5t148.5 193.5q91 79 203 114.5t272 35.5h178zM668 213l92 622q-35 3 -53 4t-31 1q-251 0 -406 -138t-155 -356q0 -132 66.5 -210.5t176.5 -78.5q77 0 154.5 39.5t155.5 116.5z
M467 1055l238 348h119l-277 -348h-80z" />
    <glyph glyph-name="agrave" unicode="&#xe0;" horiz-adv-x="952" 
d="M731 0h-96l14 98q-78 -60 -156 -89t-159 -29q-141 0 -230.5 102t-89.5 266q0 121 52.5 232.5t148.5 193.5q91 79 203 114.5t272 35.5h178zM668 213l92 622q-35 3 -53 4t-31 1q-251 0 -406 -138t-155 -356q0 -132 66.5 -210.5t176.5 -78.5q77 0 154.5 39.5t155.5 116.5z
M687 1055h-72l-279 348h119z" />
    <glyph glyph-name="acircumflex" unicode="&#xe2;" horiz-adv-x="952" 
d="M731 0h-96l14 98q-78 -60 -156 -89t-159 -29q-141 0 -230.5 102t-89.5 266q0 121 52.5 232.5t148.5 193.5q91 79 203 114.5t272 35.5h178zM668 213l92 622q-35 3 -53 4t-31 1q-251 0 -406 -138t-155 -356q0 -132 66.5 -210.5t176.5 -78.5q77 0 154.5 39.5t155.5 116.5z
M848 1055h-69l-156 256l-242 -256h-79l278 348h102z" />
    <glyph glyph-name="adieresis" unicode="&#xe4;" horiz-adv-x="952" 
d="M731 0h-96l14 98q-78 -60 -156 -89t-159 -29q-141 0 -230.5 102t-89.5 266q0 121 52.5 232.5t148.5 193.5q91 79 203 114.5t272 35.5h178zM668 213l92 622q-35 3 -53 4t-31 1q-251 0 -406 -138t-155 -356q0 -132 66.5 -210.5t176.5 -78.5q77 0 154.5 39.5t155.5 116.5z
M689 1137l22 147h131l-20 -147h-133zM359 1137l20 147h133l-22 -147h-131z" />
    <glyph glyph-name="atilde" unicode="&#xe3;" horiz-adv-x="952" 
d="M731 0h-96l14 98q-78 -60 -156 -89t-159 -29q-141 0 -230.5 102t-89.5 266q0 121 52.5 232.5t148.5 193.5q91 79 203 114.5t272 35.5h178zM668 213l92 622q-35 3 -53 4t-31 1q-251 0 -406 -138t-155 -356q0 -132 66.5 -210.5t176.5 -78.5q77 0 154.5 39.5t155.5 116.5z
M857 1300q-30 -83 -70.5 -123t-95.5 -40q-15 0 -31 2t-31 6l-76 20l-22 6q-27 7 -35 7q-30 0 -52 -17t-38 -53h-64q29 81 70 122.5t94 41.5q11 0 26.5 -2.5t38.5 -7.5l75 -21q23 -6 35.5 -8t21.5 -2q32 0 53.5 17t35.5 52h65z" />
    <glyph glyph-name="aring" unicode="&#xe5;" horiz-adv-x="952" 
d="M446 1225q0 -67 45.5 -111.5t112.5 -44.5t112.5 44.5t45.5 111.5t-45.5 113t-112.5 46t-112.5 -45.5t-45.5 -113.5zM371 1227q0 98 67.5 165.5t165.5 67.5t166 -67.5t68 -165.5q0 -99 -68 -166.5t-166 -67.5t-165.5 67.5t-67.5 166.5zM731 0h-96l14 98q-78 -60 -156 -89
t-159 -29q-141 0 -230.5 102t-89.5 266q0 121 52.5 232.5t148.5 193.5q91 79 203 114.5t272 35.5h178zM668 213l92 622q-35 3 -53 4t-31 1q-251 0 -406 -138t-155 -356q0 -132 66.5 -210.5t176.5 -78.5q77 0 154.5 39.5t155.5 116.5z" />
    <glyph glyph-name="ccedilla" unicode="&#xe7;" horiz-adv-x="846" 
d="M711 137l-13 -94q-72 -31 -138 -46t-126 -15q-172 0 -280.5 115t-108.5 298q0 97 34 191.5t97 171.5q76 93 181 140.5t235 47.5q37 0 84 -7.5t104 -23.5l-14 -94q-56 15 -100.5 22t-81.5 7q-188 0 -314.5 -127.5t-126.5 -316.5q0 -153 87 -245.5t229 -92.5q53 0 115.5 17
t136.5 52zM137 -412l23 64q64 -18 116 -26.5t95 -8.5q69 0 107 29.5t38 83.5q0 51 -37.5 73.5t-124.5 22.5q-19 0 -30 -0.5t-20 -1.5l57 176h59l-37 -113h23q95 0 144.5 -38.5t49.5 -112.5q0 -87 -58 -138t-157 -51q-45 0 -107 10.5t-141 30.5z" />
    <glyph glyph-name="eacute" unicode="&#xe9;" horiz-adv-x="893" 
d="M737 178l-2 -98q-66 -51 -137.5 -75.5t-153.5 -24.5q-188 0 -303.5 124t-115.5 326q0 219 125.5 366.5t308.5 147.5q161 0 249.5 -99.5t88.5 -281.5q0 -28 -0.5 -41.5t-1.5 -25.5l-662 -1q-1 -11 -1.5 -22.5t-0.5 -34.5q0 -173 87.5 -274t236.5 -101q64 0 134 28.5
t148 86.5zM705 569v21q0 124 -65.5 197t-174.5 73q-114 0 -199.5 -78t-118.5 -213h558zM346 1055l238 348h119l-277 -348h-80z" />
    <glyph glyph-name="egrave" unicode="&#xe8;" horiz-adv-x="893" 
d="M737 178l-2 -98q-66 -51 -137.5 -75.5t-153.5 -24.5q-188 0 -303.5 124t-115.5 326q0 219 125.5 366.5t308.5 147.5q161 0 249.5 -99.5t88.5 -281.5q0 -28 -0.5 -41.5t-1.5 -25.5l-662 -1q-1 -11 -1.5 -22.5t-0.5 -34.5q0 -173 87.5 -274t236.5 -101q64 0 134 28.5
t148 86.5zM705 569v21q0 124 -65.5 197t-174.5 73q-114 0 -199.5 -78t-118.5 -213h558zM566 1055h-72l-279 348h119z" />
    <glyph glyph-name="ecircumflex" unicode="&#xea;" horiz-adv-x="893" 
d="M737 178l-2 -98q-66 -51 -137.5 -75.5t-153.5 -24.5q-188 0 -303.5 124t-115.5 326q0 219 125.5 366.5t308.5 147.5q161 0 249.5 -99.5t88.5 -281.5q0 -28 -0.5 -41.5t-1.5 -25.5l-662 -1q-1 -11 -1.5 -22.5t-0.5 -34.5q0 -173 87.5 -274t236.5 -101q64 0 134 28.5
t148 86.5zM705 569v21q0 124 -65.5 197t-174.5 73q-114 0 -199.5 -78t-118.5 -213h558zM727 1055h-69l-156 256l-242 -256h-79l278 348h102z" />
    <glyph glyph-name="edieresis" unicode="&#xeb;" horiz-adv-x="893" 
d="M737 178l-2 -98q-66 -51 -137.5 -75.5t-153.5 -24.5q-188 0 -303.5 124t-115.5 326q0 219 125.5 366.5t308.5 147.5q161 0 249.5 -99.5t88.5 -281.5q0 -28 -0.5 -41.5t-1.5 -25.5l-662 -1q-1 -11 -1.5 -22.5t-0.5 -34.5q0 -173 87.5 -274t236.5 -101q64 0 134 28.5
t148 86.5zM705 569v21q0 124 -65.5 197t-174.5 73q-114 0 -199.5 -78t-118.5 -213h558zM568 1137l22 147h131l-20 -147h-133zM238 1137l20 147h133l-22 -147h-131z" />
    <glyph glyph-name="iacute" unicode="&#xed;" horiz-adv-x="362" 
d="M117 0h-97l138 924h96zM114 1055l238 348h119l-277 -348h-80z" />
    <glyph glyph-name="igrave" unicode="&#xec;" horiz-adv-x="362" 
d="M117 0h-97l138 924h96zM334 1055h-72l-279 348h119z" />
    <glyph glyph-name="icircumflex" unicode="&#xee;" horiz-adv-x="362" 
d="M117 0h-97l138 924h96zM495 1055h-69l-156 256l-242 -256h-79l278 348h102z" />
    <glyph glyph-name="idieresis" unicode="&#xef;" horiz-adv-x="362" 
d="M117 0h-97l138 924h96zM336 1137l22 147h131l-20 -147h-133zM6 1137l20 147h133l-22 -147h-131z" />
    <glyph glyph-name="ntilde" unicode="&#xf1;" horiz-adv-x="934" 
d="M18 0l138 924h96l-23 -140q89 81 174.5 121.5t167.5 40.5q113 0 174.5 -62.5t61.5 -176.5q0 -27 -3.5 -66.5t-10.5 -87.5l-82 -553h-97l86 578q7 36 10 68t3 59q0 79 -39 119t-115 40q-81 0 -170.5 -50.5t-175.5 -145.5l-100 -668h-95zM789 1300q-30 -83 -70.5 -123
t-95.5 -40q-15 0 -31 2t-31 6l-76 20l-22 6q-27 7 -35 7q-30 0 -52 -17t-38 -53h-64q29 81 70 122.5t94 41.5q11 0 26.5 -2.5t38.5 -7.5l75 -21q23 -6 35.5 -8t21.5 -2q32 0 53.5 17t35.5 52h65z" />
    <glyph glyph-name="oacute" unicode="&#xf3;" horiz-adv-x="879" 
d="M23 377q0 241 128.5 404t311.5 163q146 0 233.5 -106.5t87.5 -286.5q0 -244 -126 -406.5t-310 -162.5q-152 0 -238.5 104.5t-86.5 290.5zM453 848q-136 0 -233 -136t-97 -335q0 -144 60.5 -223.5t168.5 -79.5q138 0 234 136t96 341q0 138 -62 217.5t-167 79.5zM354 1055
l238 348h119l-277 -348h-80z" />
    <glyph glyph-name="ograve" unicode="&#xf2;" horiz-adv-x="879" 
d="M23 377q0 241 128.5 404t311.5 163q146 0 233.5 -106.5t87.5 -286.5q0 -244 -126 -406.5t-310 -162.5q-152 0 -238.5 104.5t-86.5 290.5zM453 848q-136 0 -233 -136t-97 -335q0 -144 60.5 -223.5t168.5 -79.5q138 0 234 136t96 341q0 138 -62 217.5t-167 79.5zM574 1055
h-72l-279 348h119z" />
    <glyph glyph-name="ocircumflex" unicode="&#xf4;" horiz-adv-x="879" 
d="M23 377q0 241 128.5 404t311.5 163q146 0 233.5 -106.5t87.5 -286.5q0 -244 -126 -406.5t-310 -162.5q-152 0 -238.5 104.5t-86.5 290.5zM453 848q-136 0 -233 -136t-97 -335q0 -144 60.5 -223.5t168.5 -79.5q138 0 234 136t96 341q0 138 -62 217.5t-167 79.5zM735 1055
h-69l-156 256l-242 -256h-79l278 348h102z" />
    <glyph glyph-name="odieresis" unicode="&#xf6;" horiz-adv-x="879" 
d="M23 377q0 241 128.5 404t311.5 163q146 0 233.5 -106.5t87.5 -286.5q0 -244 -126 -406.5t-310 -162.5q-152 0 -238.5 104.5t-86.5 290.5zM453 848q-136 0 -233 -136t-97 -335q0 -144 60.5 -223.5t168.5 -79.5q138 0 234 136t96 341q0 138 -62 217.5t-167 79.5zM576 1137
l22 147h131l-20 -147h-133zM246 1137l20 147h133l-22 -147h-131z" />
    <glyph glyph-name="otilde" unicode="&#xf5;" horiz-adv-x="879" 
d="M23 377q0 241 128.5 404t311.5 163q146 0 233.5 -106.5t87.5 -286.5q0 -244 -126 -406.5t-310 -162.5q-152 0 -238.5 104.5t-86.5 290.5zM453 848q-136 0 -233 -136t-97 -335q0 -144 60.5 -223.5t168.5 -79.5q138 0 234 136t96 341q0 138 -62 217.5t-167 79.5zM744 1300
q-30 -83 -70.5 -123t-95.5 -40q-15 0 -31 2t-31 6l-76 20l-22 6q-27 7 -35 7q-30 0 -52 -17t-38 -53h-64q29 81 70 122.5t94 41.5q11 0 26.5 -2.5t38.5 -7.5l75 -21q23 -6 35.5 -8t21.5 -2q32 0 53.5 17t35.5 52h65z" />
    <glyph glyph-name="uacute" unicode="&#xfa;" horiz-adv-x="934" 
d="M846 928l-139 -928h-97l23 143q-91 -83 -178 -123t-174 -40q-106 0 -165 66t-59 185q0 24 4 60.5t11 81.5l82 555h96l-86 -580q-6 -40 -9 -71t-3 -54q0 -77 38 -119.5t107 -42.5q84 0 174 50.5t180 148.5l99 668h96zM399 1055l238 348h119l-277 -348h-80z" />
    <glyph glyph-name="ugrave" unicode="&#xf9;" horiz-adv-x="934" 
d="M846 928l-139 -928h-97l23 143q-91 -83 -178 -123t-174 -40q-106 0 -165 66t-59 185q0 24 4 60.5t11 81.5l82 555h96l-86 -580q-6 -40 -9 -71t-3 -54q0 -77 38 -119.5t107 -42.5q84 0 174 50.5t180 148.5l99 668h96zM619 1055h-72l-279 348h119z" />
    <glyph glyph-name="ucircumflex" unicode="&#xfb;" horiz-adv-x="934" 
d="M846 928l-139 -928h-97l23 143q-91 -83 -178 -123t-174 -40q-106 0 -165 66t-59 185q0 24 4 60.5t11 81.5l82 555h96l-86 -580q-6 -40 -9 -71t-3 -54q0 -77 38 -119.5t107 -42.5q84 0 174 50.5t180 148.5l99 668h96zM780 1055h-69l-156 256l-242 -256h-79l278 348h102z
" />
    <glyph glyph-name="udieresis" unicode="&#xfc;" horiz-adv-x="934" 
d="M846 928l-139 -928h-97l23 143q-91 -83 -178 -123t-174 -40q-106 0 -165 66t-59 185q0 24 4 60.5t11 81.5l82 555h96l-86 -580q-6 -40 -9 -71t-3 -54q0 -77 38 -119.5t107 -42.5q84 0 174 50.5t180 148.5l99 668h96zM621 1137l22 147h131l-20 -147h-133zM291 1137l20 147
h133l-22 -147h-131z" />
    <glyph glyph-name="dagger" unicode="&#x2020;" horiz-adv-x="1034" 
d="M489 840l-389 -29l15 125l385 -37l39 500h139l-115 -500l393 37l-18 -129l-383 33l-113 -1024h-141z" />
    <glyph glyph-name="degree" unicode="&#xb0;" horiz-adv-x="674" 
d="M551 1176q0 87 -63 150t-150 63q-89 0 -151 -62t-62 -151t62.5 -151t150.5 -62t150.5 62t62.5 151zM338 1450q112 0 192 -80.5t80 -193.5q0 -114 -80 -193.5t-194 -79.5q-115 0 -194 79t-79 194q0 114 80.5 194t194.5 80z" />
    <glyph glyph-name="cent" unicode="&#xa2;" horiz-adv-x="1034" 
d="M797 158l-15 -95q-67 -32 -130.5 -47.5t-125.5 -15.5q-24 0 -52 3t-60 9l-115 -309h-88l123 326q-99 59 -152 158.5t-53 226.5q0 239 155 397t392 158h8l100 266l86 -4l-100 -268q8 -2 21 -4q53 -9 75 -17l-14 -94q-32 9 -61 15t-56 9l-290 -776l20 -3q60 -9 80 -9
q50 0 111 18t141 56zM371 127l278 747q-186 -10 -303 -134.5t-117 -311.5q0 -99 37 -177t105 -124z" />
    <glyph glyph-name="sterling" unicode="&#xa3;" horiz-adv-x="1034" 
d="M201 111q25 5 52.5 7.5t59.5 2.5q76 0 190 -22.5t154 -22.5q39 0 92 8.5t123 26.5l-14 -97q-52 -18 -97.5 -26t-88.5 -8q-52 0 -171 20t-188 20q-42 0 -97.5 -7t-168.5 -29l234 661h-181l13 76h196l82 223q89 240 203 358.5t254 118.5q37 0 74.5 -9.5t76.5 -29.5v-94
q-44 18 -80 26.5t-69 8.5q-112 0 -202 -103.5t-175 -332.5l-61 -166h237l-12 -76h-250z" />
    <glyph glyph-name="section" unicode="&#xa7;" horiz-adv-x="1034" 
d="M571 328q97 27 150 86t53 139q0 62 -34.5 110.5t-135.5 116.5l-201 135q-97 -33 -147.5 -91t-50.5 -136q0 -62 35 -111.5t133 -115.5zM643 266q31 -31 46.5 -74.5t15.5 -101.5q0 -122 -82 -197t-217 -75q-91 0 -168.5 24.5t-151.5 77.5l20 92q83 -57 152 -82.5t141 -25.5
q99 0 154 48.5t55 135.5q0 100 -191 227q-22 14 -32 21l-23 15q-260 169 -260 339q0 98 60 171t174 114q-32 30 -48 74t-16 102q0 124 85.5 198t230.5 74q80 0 154 -25t149 -77l-21 -92q-80 56 -151 82t-141 26q-99 0 -154 -47.5t-55 -132.5q0 -105 202 -236l20 -13
q7 -5 21 -14q265 -174 265 -343q0 -97 -60.5 -170.5t-173.5 -114.5z" />
    <glyph glyph-name="bullet" unicode="&#x2022;" horiz-adv-x="1208" 
d="M307 762q0 123 87 209t210 86q122 0 208.5 -86.5t86.5 -208.5t-87.5 -209.5t-209.5 -87.5q-123 0 -209 87t-86 210z" />
    <glyph glyph-name="paragraph" unicode="&#xb6;" 
d="M932 1415h-129v-1415h-70v1415h-192v-1415h-70v782q-175 8 -278 102.5t-103 245.5q0 157 108.5 253t286.5 96h447v-64z" />
    <glyph glyph-name="germandbls" unicode="&#xdf;" horiz-adv-x="963" 
d="M125 0h-98l143 979q18 124 37 184t49 105q51 74 131 114.5t174 40.5q144 0 233 -86.5t89 -226.5q0 -104 -61.5 -188.5t-164.5 -118.5q98 -47 146.5 -128t48.5 -196q0 -222 -117.5 -359.5t-306.5 -137.5q-24 0 -47 2t-45 6l10 90q24 -4 46 -6t44 -2q139 0 226.5 110
t87.5 285q0 134 -79 214.5t-218 88.5l12 84h10q144 0 228.5 70.5t84.5 187.5q0 99 -67 165t-168 66q-115 0 -184.5 -85.5t-96.5 -260.5z" />
    <glyph glyph-name="registered" unicode="&#xae;" horiz-adv-x="1706" 
d="M852 1077h-168v-313h168q145 0 199.5 36t54.5 126q0 78 -61.5 114.5t-192.5 36.5zM874 1155q180 0 264.5 -56.5t84.5 -176.5q0 -89 -55.5 -149t-147.5 -71l190 -393h-131l-182 377h-213v-377h-115v846h305zM1511 721q0 133 -49 252.5t-141 212.5q-95 95 -215 144.5
t-254 49.5q-133 0 -251.5 -49t-209.5 -141q-95 -97 -145.5 -218t-50.5 -251t50 -249.5t144 -213.5t213.5 -144.5t249.5 -50.5t251.5 51t217.5 146q93 92 141.5 209.5t48.5 251.5zM852 1452q149 0 282.5 -55t237.5 -160q103 -102 157 -235t54 -281q0 -150 -53.5 -280
t-157.5 -232q-107 -106 -241.5 -162.5t-278.5 -56.5q-145 0 -277 55.5t-237 161.5q-105 104 -160 236t-55 278q0 145 56 279t161 241q101 103 232 157t280 54z" />
    <glyph glyph-name="copyright" unicode="&#xa9;" horiz-adv-x="1706" 
d="M1081 918q-20 81 -79.5 126.5t-147.5 45.5q-126 0 -196 -97.5t-70 -273.5q0 -169 71.5 -267t194.5 -98q91 0 156 52.5t84 140.5h102q-11 -123 -108 -201t-240 -78q-173 0 -275 123.5t-102 333.5q0 205 107 328t282 123q132 0 222.5 -72t103.5 -186h-105zM1511 721
q0 133 -49 252.5t-141 212.5q-95 95 -215 144.5t-254 49.5q-133 0 -251.5 -49t-209.5 -141q-95 -97 -145.5 -218t-50.5 -251t50 -249.5t144 -213.5t213.5 -144.5t249.5 -50.5t251.5 51t217.5 146q93 92 141.5 209.5t48.5 251.5zM852 1452q149 0 282.5 -55t237.5 -160
q103 -102 157 -235t54 -281q0 -150 -53.5 -280t-157.5 -232q-107 -106 -241.5 -162.5t-278.5 -56.5q-145 0 -277 55.5t-237 161.5q-105 104 -160 236t-55 278q0 145 56 279t161 241q101 103 232 157t280 54z" />
    <glyph glyph-name="trademark" unicode="&#x2122;" horiz-adv-x="1706" 
d="M926 1454l174 -440l162 440h102v-530h-59v479l-181 -479h-49l-190 479v-479h-60v530h101zM694 1454v-51h-174v-479h-67v479h-179v51h420z" />
    <glyph glyph-name="acute" unicode="&#xb4;" 
d="M444 1055l238 348h119l-277 -348h-80z" />
    <glyph glyph-name="dieresis" unicode="&#xa8;" 
d="M666 1137l22 147h131l-20 -147h-133zM336 1137l20 147h133l-22 -147h-131z" />
    <glyph glyph-name="notequal" unicode="&#x2260;" horiz-adv-x="1706" 
d="M1280 1108l-217 -277h389v-79h-440l-219 -283h659v-82h-711l-254 -324l-61 48l215 276h-387v82h436l221 283h-657v79h709l254 326z" />
    <glyph glyph-name="AE" unicode="&#xc6;" horiz-adv-x="1722" 
d="M512 768h354l80 545h-31zM-39 0h-119l1022 1399h813l-12 -86h-623l-81 -545h587l-14 -90h-586l-86 -584h836l-15 -94h-931l102 678h-397z" />
    <glyph glyph-name="Oslash" unicode="&#xd8;" horiz-adv-x="1313" 
d="M1065 1155l-748 -1005q57 -45 118.5 -66t135.5 -21q117 0 215.5 53.5t171.5 155.5q84 118 128 268t44 316q0 96 -16 169t-49 130zM260 219l758 1010q-59 53 -126 78.5t-147 25.5q-116 0 -219 -54.5t-172 -152.5q-83 -117 -129.5 -270.5t-46.5 -310.5q0 -93 20.5 -174.5
t61.5 -151.5zM197 127q-64 83 -94.5 187t-30.5 235q0 178 53 343.5t151 297.5q87 113 207.5 173t259.5 60q100 0 183.5 -30t148.5 -88l109 149l63 -49l-117 -162q57 -73 83 -167.5t26 -225.5q0 -183 -52 -346t-151 -293q-90 -118 -207 -177t-262 -59q-88 0 -163 23.5
t-146 73.5l-108 -144l-68 49z" />
    <glyph glyph-name="infinity" unicode="&#x221e;" horiz-adv-x="1706" 
d="M889 557q54 -103 125 -154t162 -51q107 0 176 78t69 199q0 119 -63.5 196.5t-159.5 77.5q-87 0 -157.5 -77.5t-151.5 -268.5zM819 670q-52 102 -123.5 153t-163.5 51q-108 0 -176.5 -77.5t-68.5 -198.5q0 -118 63.5 -195t159.5 -77q88 0 158 76t151 268zM836 713
q66 139 146 206.5t177 67.5q130 0 219.5 -106t89.5 -265q0 -165 -80 -266.5t-210 -101.5q-94 0 -165.5 60.5t-142.5 201.5q-71 -139 -148.5 -203.5t-172.5 -64.5q-130 0 -220.5 106.5t-90.5 263.5q0 166 80 267.5t210 101.5q98 0 172.5 -64.5t135.5 -203.5z" />
    <glyph glyph-name="plusminus" unicode="&#xb1;" horiz-adv-x="1706" 
d="M1452 141v-82h-1198v82h1198zM893 1161v-354h559v-80h-559v-352h-80v352h-559v80h559v354h80z" />
    <glyph glyph-name="lessequal" unicode="&#x2264;" horiz-adv-x="1706" 
d="M1442 129v-80h-1178v80h1178zM1442 1083l-1043 -350l1043 -352v-88l-1178 405v70l1178 403v-88z" />
    <glyph glyph-name="greaterequal" unicode="&#x2265;" horiz-adv-x="1706" 
d="M1442 129v-80h-1178v80h1178zM1442 768v-70l-1178 -405v88l1043 352l-1043 350v88z" />
    <glyph glyph-name="yen" unicode="&#xa5;" horiz-adv-x="1034" 
d="M799 1012h233l-10 -78h-285l-145 -186h401l-12 -78h-418l-114 -670h-97l105 670h-418l12 78h404l-93 186h-284l12 78h234l-189 387h96l293 -594l459 594h113z" />
    <glyph glyph-name="mu" unicode="&#xb5;" horiz-adv-x="1094" 
d="M326 1063l-123 -590q-9 -43 -13 -77t-4 -64q0 -126 60 -192t174 -66q127 0 219.5 109t136.5 313l125 567h121l-166 -786q-2 -9 -5 -24q-20 -92 -20 -112q0 -31 17.5 -47t50.5 -16q9 0 18.5 0.5t20.5 1.5l-18 -96q-3 -1 -8 -2q-49 -11 -68 -11q-68 0 -100.5 31.5
t-32.5 95.5q0 7 0.5 16t3.5 29q-43 -83 -123.5 -127.5t-188.5 -44.5q-97 0 -169.5 45.5t-104.5 126.5l-119 -567h-121l316 1487h121z" />
    <glyph glyph-name="partialdiff" unicode="&#x2202;" 
d="M750 578q11 69 16.5 144.5t5.5 160.5q0 179 -38 266.5t-116 87.5q-45 0 -99.5 -73.5t-108.5 -73.5q-29 0 -48.5 18.5t-19.5 46.5q0 59 61 102t148 43q160 0 254 -147t94 -401q0 -335 -131.5 -557t-323.5 -222q-139 0 -224 105t-85 280q0 173 107 296.5t258 123.5
q97 0 158.5 -49t91.5 -151zM713 459q0 125 -47 190.5t-138 65.5q-117 0 -190.5 -125t-73.5 -330q0 -117 47.5 -179.5t137.5 -62.5q114 0 189 125.5t75 315.5z" />
    <glyph glyph-name="summation" unicode="&#x2211;" horiz-adv-x="1290" 
d="M45 1473h1208v-123h-1038l721 -787l-760 -835h1077v-121h-1243v127l752 829l-717 787v123z" />
    <glyph glyph-name="product" unicode="&#x220f;" horiz-adv-x="1491" 
d="M164 1473h1163v-1866h-135v1743h-893v-1743h-135v1866z" />
    <glyph glyph-name="pi" unicode="&#x3c0;" horiz-adv-x="1155" 
d="M1102 958h-182l-119 -565q-14 -62 -21.5 -111t-7.5 -77q0 -59 24.5 -83t84.5 -24q27 0 49.5 2.5t42.5 7.5l-25 -108q-29 -9 -52 -12.5t-44 -3.5q-92 0 -145.5 54t-53.5 148q0 47 11.5 122.5t44.5 228.5l88 421h-381l-203 -958h-121l201 958h-39q-55 0 -85.5 -32
t-41.5 -101h-121q25 135 85 186.5t206 51.5h829z" />
    <glyph glyph-name="integral" unicode="&#x222b;" horiz-adv-x="948" 
d="M401 578q0 498 86.5 733t268.5 235q65 0 106 -35t41 -90q0 -45 -27.5 -71.5t-74.5 -26.5q-77 0 -101.5 64.5t-33.5 64.5q-67 0 -93 -159t-26 -687q0 -509 -85.5 -743t-268.5 -234q-64 0 -106 34.5t-42 84.5q0 48 28.5 77.5t76.5 29.5q33 0 56 -13.5t40 -42.5
q8 -14 12.5 -44.5t24.5 -30.5q66 0 92 165t26 689z" />
    <glyph glyph-name="ordfeminine" unicode="&#xaa;" horiz-adv-x="715" 
d="M549 752h-72l10 69q-57 -42 -116 -63t-121 -21q-106 0 -173 72t-67 186q0 85 40 163t112 136q69 55 153 80t203 25h133zM502 901l67 436q-10 0 -31 1t-30 1q-189 0 -305.5 -96t-116.5 -250q0 -92 49.5 -146t132.5 -54q58 0 116.5 27t117.5 81z" />
    <glyph glyph-name="ordmasculine" unicode="&#xba;" horiz-adv-x="659" 
d="M16 1016q0 168 97 282.5t235 114.5q109 0 174.5 -75t65.5 -201q0 -171 -94 -284.5t-232 -113.5q-114 0 -180 73.5t-66 203.5zM340 1346q-102 0 -175 -95.5t-73 -234.5q0 -101 45.5 -157t126.5 -56q104 0 176 95t72 239q0 97 -46.5 153t-125.5 56z" />
    <glyph glyph-name="Omega" unicode="&#x3a9;" horiz-adv-x="1585" 
d="M1452 121v-121h-573v102q218 136 328 307.5t110 376.5q0 269 -146.5 438t-377.5 169t-378 -169t-147 -438q0 -205 110 -376.5t329 -307.5v-102h-572v121h354q-183 132 -271.5 295.5t-88.5 369.5q0 317 188.5 522t475.5 205q286 0 474.5 -205t188.5 -522
q0 -206 -88.5 -369.5t-271.5 -295.5h356z" />
    <glyph glyph-name="ae" unicode="&#xe6;" horiz-adv-x="1432" 
d="M573 496q-234 -12 -361.5 -87t-127.5 -200q0 -63 40 -105.5t99 -42.5q48 0 99.5 21.5t101.5 62.5q45 38 79.5 86.5t39.5 74.5zM1276 178l-2 -98q-65 -52 -136.5 -77.5t-154.5 -25.5q-135 0 -233.5 67.5t-149.5 193.5q-91 -131 -185 -196t-194 -65q-103 0 -164 61.5
t-61 166.5q0 167 151 262.5t435 105.5l22 140v12q0 56 -51.5 96.5t-126.5 40.5q-63 0 -139 -33.5t-156 -97.5l-29 80q78 65 164 99t174 34q97 0 161.5 -43.5t82.5 -120.5q64 83 142 123.5t173 40.5q164 0 250 -99.5t86 -287.5q0 -25 -0.5 -38t-1.5 -23l-661 -1
q-1 -10 -1.5 -22.5t-0.5 -36.5q0 -171 84 -270.5t227 -99.5q74 0 148 28t147 84zM1243 569v19q0 132 -63.5 203t-180.5 71q-109 0 -194 -78.5t-119 -214.5h557z" />
    <glyph glyph-name="oslash" unicode="&#xf8;" horiz-adv-x="879" 
d="M123 70l-94 -119l-54 47l105 129q-29 46 -43 102.5t-14 126.5q0 261 124 424.5t316 163.5q60 0 111 -20t100 -62l88 111l53 -49l-94 -121q31 -52 46 -108.5t15 -121.5q0 -265 -122.5 -428t-317.5 -163q-70 0 -123.5 21.5t-95.5 66.5zM150 211l460 573q-28 35 -66.5 51.5
t-88.5 16.5q-140 0 -237 -138t-97 -343q0 -39 7 -79t22 -81zM651 721l-469 -576q34 -37 76 -55t92 -18q140 0 237 136.5t97 342.5q0 53 -8 94t-25 76z" />
    <glyph glyph-name="questiondown" unicode="&#xbf;" horiz-adv-x="772" 
d="M489 1038h60q-4 -195 -249 -447l-7 -7l-9 -9q-188 -195 -188 -307q0 -89 61.5 -148t153.5 -59q55 0 118 28.5t144 90.5l-6 -98q-69 -54 -135.5 -80.5t-132.5 -26.5q-123 0 -208 78.5t-85 190.5q0 92 42.5 171.5t172.5 202.5l15 15q234 222 253 405zM516 1399h125
l-29 -191h-125z" />
    <glyph glyph-name="exclamdown" unicode="&#xa1;" horiz-adv-x="516" 
d="M268 1042h37l-106 -1042h-125zM281 1399h125l-29 -191h-123z" />
    <glyph glyph-name="logicalnot" unicode="&#xac;" horiz-adv-x="1706" 
d="M1452 856v-502h-78v420h-1120v82h1198z" />
    <glyph glyph-name="radical" unicode="&#x221a;" horiz-adv-x="1264" 
d="M1264 1626v-61h-129l-596 -1606h-31l-330 907l-110 -39l-15 50l230 79l278 -759l531 1429h172z" />
    <glyph glyph-name="florin" unicode="&#x192;" horiz-adv-x="1034" 
d="M10 -307q27 -11 51 -16t48 -5q152 0 206 344l2 13l121 768h-176l14 94h177l10 74q36 261 108.5 359.5t214.5 98.5q25 0 54.5 -4.5t64.5 -13.5l-16 -107q-36 12 -59.5 16.5t-43.5 4.5q-88 0 -130 -59.5t-76 -296.5l-11 -72h187l-15 -94h-188l-119 -770
q-42 -271 -112.5 -364t-210.5 -93q-25 0 -54 4.5t-63 14.5z" />
    <glyph glyph-name="approxequal" unicode="&#x2248;" horiz-adv-x="1706" 
d="M1530 485q-106 -74 -202 -110.5t-185 -36.5q-106 0 -295.5 70.5t-282.5 70.5q-83 0 -171 -35.5t-216 -124.5v93q105 73 201 109t186 36q106 0 295.5 -69.5t282.5 -69.5q83 0 171 35.5t216 124.5v-93zM1530 809q-105 -73 -200.5 -109t-186.5 -36q-106 0 -295.5 69.5
t-282.5 69.5q-83 0 -171 -35.5t-216 -124.5v92q106 75 202 111.5t185 36.5q106 0 295.5 -71t282.5 -71q81 0 168.5 36t218.5 126v-94z" />
    <glyph glyph-name="Delta" unicode="&#x2206;" horiz-adv-x="1335" 
d="M1155 121l-487 1233l-490 -1233h977zM754 1473l592 -1473h-1358l594 1473h172z" />
    <glyph glyph-name="guillemotleft" unicode="&#xab;" horiz-adv-x="840" 
d="M305 770h131l-278 -313l194 -303h-123l-200 303zM606 770h131l-278 -313l194 -303h-123l-200 303z" />
    <glyph glyph-name="guillemotright" unicode="&#xbb;" horiz-adv-x="840" 
d="M158 156h-133l280 313l-194 303h122l201 -303zM459 156h-131l278 313l-194 303h123l200 -303z" />
    <glyph glyph-name="ellipsis" unicode="&#x2026;" horiz-adv-x="2048" 
d="M309 0h-125l29 190h125zM991 0h-125l29 190h125zM1675 0h-125l29 190h125z" />
    <glyph glyph-name="nonbreakingspace" unicode="&#xa0;" horiz-adv-x="1034" 
 />
    <glyph glyph-name="Agrave" unicode="&#xc0;" horiz-adv-x="1075" 
d="M20 0h-108l651 1399h84l334 -1399h-98l-121 512h-510zM299 606h442l-149 639zM766 1534h-72l-279 348h119z" />
    <glyph glyph-name="Atilde" unicode="&#xc3;" horiz-adv-x="1075" 
d="M20 0h-108l651 1399h84l334 -1399h-98l-121 512h-510zM299 606h442l-149 639zM936 1779q-30 -83 -70.5 -123t-95.5 -40q-15 0 -31 2t-31 6l-76 20l-22 6q-27 7 -35 7q-30 0 -52 -17t-38 -53h-64q29 81 70 122.5t94 41.5q11 0 26.5 -2.5t38.5 -7.5l75 -21q23 -6 35.5 -8
t21.5 -2q32 0 53.5 17t35.5 52h65z" />
    <glyph glyph-name="Otilde" unicode="&#xd5;" horiz-adv-x="1313" 
d="M70 547q0 178 53.5 345.5t152.5 297.5q85 112 207 172.5t265 60.5q228 0 361.5 -154.5t133.5 -420.5q0 -175 -53.5 -341.5t-151.5 -295.5q-89 -117 -207.5 -176.5t-263.5 -59.5q-232 0 -364.5 152.5t-132.5 419.5zM745 1333q-117 0 -218.5 -53.5t-170.5 -151.5
q-84 -118 -130 -270t-46 -311q0 -227 102 -355.5t283 -128.5q119 0 220 54t173 155q83 118 129 268.5t46 309.5q0 227 -103 355t-285 128zM1057 1779q-30 -83 -70.5 -123t-95.5 -40q-15 0 -31 2t-31 6l-76 20l-22 6q-27 7 -35 7q-30 0 -52 -17t-38 -53h-64q29 81 70 122.5
t94 41.5q11 0 26.5 -2.5t38.5 -7.5l75 -21q23 -6 35.5 -8t21.5 -2q32 0 53.5 17t35.5 52h65z" />
    <glyph glyph-name="OE" unicode="&#x152;" horiz-adv-x="1827" 
d="M772 94h100l183 1211h-156q-227 0 -329.5 -41t-188.5 -140q-86 -100 -136 -250.5t-50 -308.5q0 -140 49 -246t141 -165q50 -32 132.5 -46t254.5 -14zM844 0h-86q-146 0 -221.5 8t-135.5 27q-144 44 -229.5 184.5t-85.5 335.5q0 196 69.5 380t182.5 294q62 60 130.5 97
t145.5 52q59 11 127 16t177 5h55h813l-17 -94h-618l-82 -543h586l-15 -88h-585l-86 -580h835l-14 -94h-946z" />
    <glyph glyph-name="oe" unicode="&#x153;" horiz-adv-x="1540" 
d="M1352 571v17q0 128 -67 201t-183 73q-106 0 -189.5 -79t-117.5 -212h557zM1382 180v-100q-66 -49 -137 -73.5t-147 -24.5q-138 0 -238 65.5t-147 185.5q-71 -126 -162 -188.5t-203 -62.5q-151 0 -238 105t-87 290q0 242 126 404.5t308 162.5q97 0 173 -53.5t124 -155.5
q67 103 157.5 156t196.5 53q162 0 249 -100.5t87 -288.5q0 -24 -0.5 -36t-1.5 -23l-664 -1q-1 -10 -1.5 -21t-0.5 -32q0 -173 84.5 -273.5t226.5 -100.5q75 0 148.5 28t146.5 84zM453 850q-137 0 -233.5 -136t-96.5 -337q0 -144 60.5 -224.5t166.5 -80.5q139 0 235.5 136.5
t96.5 342.5q0 139 -61.5 219t-167.5 80z" />
    <glyph glyph-name="endash" unicode="&#x2013;" 
d="M-45 428l10 68h1024l-10 -68h-1024z" />
    <glyph glyph-name="emdash" unicode="&#x2014;" horiz-adv-x="2048" 
d="M2013 496l-10 -68h-2048l10 68h2048z" />
    <glyph glyph-name="quotedblleft" unicode="&#x201c;" horiz-adv-x="696" 
d="M494 1192q10 74 51.5 129.5t118.5 99.5v-51q-48 -43 -71.5 -85.5t-23.5 -86.5v-6h45l-28 -188h-121zM223 1192q11 74 52 129.5t118 99.5v-51q-48 -43 -71 -85.5t-23 -86.5v-6h47l-29 -188h-122z" />
    <glyph glyph-name="quotedblright" unicode="&#x201d;" horiz-adv-x="702" 
d="M612 1208q-11 -74 -52 -129.5t-118 -99.5v51q48 44 71.5 86t23.5 86v6h-45l28 191h121zM344 1208q-10 -74 -51.5 -129.5t-118.5 -99.5v51q48 44 71 86t23 86v6h-47l29 191h123z" />
    <glyph glyph-name="quoteleft" unicode="&#x2018;" horiz-adv-x="426" 
d="M223 1188q11 74 52 129.5t118 99.5v-51q-47 -43 -69.5 -85t-22.5 -87v-6h45l-29 -191h-122z" />
    <glyph glyph-name="quoteright" unicode="&#x2019;" horiz-adv-x="426" 
d="M340 1208q-11 -74 -52 -129.5t-118 -99.5v51q48 44 71 86t23 86v6h-45l29 191h121z" />
    <glyph glyph-name="divide" unicode="&#xf7;" horiz-adv-x="1706" 
d="M854 365q41 0 69.5 -29.5t28.5 -71.5q0 -40 -28.5 -69t-69.5 -29t-69.5 28.5t-28.5 69.5t29 71t69 30zM1452 651v-82h-1198v82h1198zM854 1055q41 0 69.5 -28.5t28.5 -70.5q0 -40 -28.5 -70t-69.5 -30t-69.5 29.5t-28.5 70.5t28.5 70t69.5 29z" />
    <glyph glyph-name="lozenge" unicode="&#x25ca;" horiz-adv-x="1012" 
d="M506 1409l-385 -817l385 -825l385 825zM506 1653l500 -1061l-500 -1069l-500 1069z" />
    <glyph glyph-name="ydieresis" unicode="&#xff;" horiz-adv-x="782" 
d="M35 -465h-98l262 492l-168 897h88l143 -774l412 774h98zM545 1137l22 147h131l-20 -147h-133zM215 1137l20 147h133l-22 -147h-131z" />
    <glyph glyph-name="Ydieresis" unicode="&#x178;" horiz-adv-x="860" 
d="M362 0h-98l115 727l-334 672h102l295 -574l451 574h117l-523 -672zM664 1616l22 147h131l-20 -147h-133zM334 1616l20 147h133l-22 -147h-131z" />
    <glyph glyph-name="fraction" unicode="&#x2215;" horiz-adv-x="342" 
d="M575 1421h107l-915 -1446h-109z" />
    <glyph glyph-name="currency" unicode="&#xa4;" horiz-adv-x="1241" 
d="M954 887q0 137 -96.5 233.5t-234.5 96.5t-235 -97t-97 -233q0 -138 97 -235t235 -97q137 0 234 97t97 235zM358 1204q60 48 125 71t138 23q72 0 138 -23.5t126 -70.5l205 207l59 -59l-207 -205q45 -58 68.5 -124.5t23.5 -137.5q0 -73 -23 -138.5t-69 -123.5l207 -205
l-59 -60l-205 207q-58 -45 -125 -68.5t-139 -23.5q-74 0 -139 23t-124 69l-206 -207l-58 60l207 205q-45 57 -68.5 123.5t-23.5 138.5q0 71 23.5 137.5t68.5 124.5l-207 205l58 59z" />
    <glyph glyph-name="guilsinglleft" unicode="&#x2039;" horiz-adv-x="539" 
d="M305 770h131l-278 -313l194 -303h-123l-200 303z" />
    <glyph glyph-name="guilsinglright" unicode="&#x203a;" horiz-adv-x="539" 
d="M158 156h-133l280 313l-194 303h122l201 -303z" />
    <glyph glyph-name="fi" unicode="&#xf001;" horiz-adv-x="868" 
d="M268 924h215l-10 -76h-215l-188 -1254h-95l185 1254h-187l13 76h186l23 135q29 187 112 272.5t232 85.5q119 0 185 -65t70 -187h-85v13q0 74 -47.5 118.5t-126.5 44.5q-100 0 -160.5 -65.5t-81.5 -196.5zM623 0h-97l140 924h96z" />
    <glyph glyph-name="fl" unicode="&#xf002;" horiz-adv-x="864" 
d="M614 0h-90l209 1399h90zM72 -406h-92l188 1254h-188l12 76h186l17 112q32 215 107 299t224 84q37 0 72.5 -6.5t70.5 -19.5l-12 -78q-36 10 -70.5 15t-66.5 5q-98 0 -152.5 -61t-74.5 -195l-23 -155h209l-10 -76h-211z" />
    <glyph glyph-name="daggerdbl" unicode="&#x2021;" horiz-adv-x="1034" 
d="M481 297l396 35l-19 -125l-385 35l-29 -426h-141l113 426l-398 -41l21 131l385 -35l6 309l82 312l-397 -35l20 125l385 -35l29 426h141l-112 -426l397 39l-21 -129l-385 35l-6 -312z" />
    <glyph glyph-name="periodcentered" unicode="&#xb7;" horiz-adv-x="516" 
d="M166 700q0 39 27 66t65 27t65 -27t27 -66q0 -38 -27 -65t-65 -27t-65 27t-27 65z" />
    <glyph glyph-name="quotesinglbase" unicode="&#x201a;" horiz-adv-x="426" 
d="M176 0q-10 -74 -51.5 -130t-118.5 -99v51q48 43 71 85.5t23 86.5v6h-45l29 190h121z" />
    <glyph glyph-name="quotedblbase" unicode="&#x201e;" horiz-adv-x="696" 
d="M446 0q-10 -73 -52 -129t-120 -100v51q48 43 71.5 85.5t23.5 86.5v6h-45l28 190h121zM176 0q-10 -74 -51.5 -130t-118.5 -99v51q48 43 71 85.5t23 86.5v6h-45l29 190h121z" />
    <glyph glyph-name="perthousand" unicode="&#x2030;" horiz-adv-x="2650" 
d="M1915 352q0 -119 81.5 -201.5t198.5 -82.5t199 83t82 201q0 119 -82 202t-199 83t-198.5 -83t-81.5 -202zM1817 352q0 158 110 268.5t268 110.5q159 0 269 -110.5t110 -268.5t-110 -268.5t-269 -110.5q-158 0 -268 110.5t-110 268.5zM1036 352q0 -119 81 -201.5
t198 -82.5t198.5 83t81.5 201q0 119 -81.5 202t-198.5 83t-198 -82.5t-81 -202.5zM936 352q0 158 110.5 268.5t268.5 110.5t269.5 -110.5t111.5 -268.5t-111.5 -268.5t-269.5 -110.5t-268.5 110.5t-110.5 268.5zM362 -25l938 1446h109l-940 -1446h-107zM176 1042
q0 -119 80.5 -201.5t198.5 -82.5q116 0 198 83t82 201q0 119 -82 202t-198 83q-117 0 -198 -82.5t-81 -202.5zM76 1042q0 159 110 269t269 110q158 0 268.5 -110t110.5 -269q0 -158 -110.5 -268t-268.5 -110q-159 0 -269 110t-110 268z" />
    <glyph glyph-name="Acircumflex" unicode="&#xc2;" horiz-adv-x="1075" 
d="M20 0h-108l651 1399h84l334 -1399h-98l-121 512h-510zM299 606h442l-149 639zM927 1534h-69l-156 256l-242 -256h-79l278 348h102z" />
    <glyph glyph-name="Ecircumflex" unicode="&#xca;" horiz-adv-x="1038" 
d="M993 0h-932l209 1399h719l-14 -86h-621l-82 -551h586l-14 -88h-586l-86 -580h836zM911 1534h-69l-156 256l-242 -256h-79l278 348h102z" />
    <glyph glyph-name="Aacute" unicode="&#xc1;" horiz-adv-x="1075" 
d="M20 0h-108l651 1399h84l334 -1399h-98l-121 512h-510zM299 606h442l-149 639zM546 1534l238 348h119l-277 -348h-80z" />
    <glyph glyph-name="Edieresis" unicode="&#xcb;" horiz-adv-x="1038" 
d="M993 0h-932l209 1399h719l-14 -86h-621l-82 -551h586l-14 -88h-586l-86 -580h836zM752 1616l22 147h131l-20 -147h-133zM422 1616l20 147h133l-22 -147h-131z" />
    <glyph glyph-name="Egrave" unicode="&#xc8;" horiz-adv-x="1038" 
d="M993 0h-932l209 1399h719l-14 -86h-621l-82 -551h586l-14 -88h-586l-86 -580h836zM750 1534h-72l-279 348h119z" />
    <glyph glyph-name="Iacute" unicode="&#xcd;" horiz-adv-x="432" 
d="M166 0h-105l209 1399h105zM227 1534l238 348h119l-277 -348h-80z" />
    <glyph glyph-name="Icircumflex" unicode="&#xce;" horiz-adv-x="432" 
d="M166 0h-105l209 1399h105zM608 1534h-69l-156 256l-242 -256h-79l278 348h102z" />
    <glyph glyph-name="Idieresis" unicode="&#xcf;" horiz-adv-x="432" 
d="M166 0h-105l209 1399h105zM449 1616l22 147h131l-20 -147h-133zM119 1616l20 147h133l-22 -147h-131z" />
    <glyph glyph-name="Igrave" unicode="&#xcc;" horiz-adv-x="432" 
d="M166 0h-105l209 1399h105zM447 1534h-72l-279 348h119z" />
    <glyph glyph-name="Oacute" unicode="&#xd3;" horiz-adv-x="1313" 
d="M70 547q0 178 53.5 345.5t152.5 297.5q85 112 207 172.5t265 60.5q228 0 361.5 -154.5t133.5 -420.5q0 -175 -53.5 -341.5t-151.5 -295.5q-89 -117 -207.5 -176.5t-263.5 -59.5q-232 0 -364.5 152.5t-132.5 419.5zM745 1333q-117 0 -218.5 -53.5t-170.5 -151.5
q-84 -118 -130 -270t-46 -311q0 -227 102 -355.5t283 -128.5q119 0 220 54t173 155q83 118 129 268.5t46 309.5q0 227 -103 355t-285 128zM667 1534l238 348h119l-277 -348h-80z" />
    <glyph glyph-name="Ocircumflex" unicode="&#xd4;" horiz-adv-x="1313" 
d="M70 547q0 178 53.5 345.5t152.5 297.5q85 112 207 172.5t265 60.5q228 0 361.5 -154.5t133.5 -420.5q0 -175 -53.5 -341.5t-151.5 -295.5q-89 -117 -207.5 -176.5t-263.5 -59.5q-232 0 -364.5 152.5t-132.5 419.5zM745 1333q-117 0 -218.5 -53.5t-170.5 -151.5
q-84 -118 -130 -270t-46 -311q0 -227 102 -355.5t283 -128.5q119 0 220 54t173 155q83 118 129 268.5t46 309.5q0 227 -103 355t-285 128zM1048 1534h-69l-156 256l-242 -256h-79l278 348h102z" />
    <glyph glyph-name="apple" unicode="&#xf000;" horiz-adv-x="1618" 
d="M836 1216q-1 6 -1.5 14t-0.5 23q0 124 95 229.5t236 131.5q1 -10 1.5 -23t0.5 -39q0 -131 -103.5 -234.5t-203.5 -103.5h-8q-3 0 -7.5 1t-8.5 1zM1505 403q-114 -247 -205 -342.5t-204 -95.5q-50 0 -131.5 33t-122.5 33q-45 0 -131 -33t-127 -33q-64 0 -128.5 44
t-129.5 132q-102 140 -157.5 295.5t-55.5 300.5q0 219 125 356.5t323 137.5q68 0 155 -34t124 -34q34 0 121.5 35t152.5 35q110 0 198 -40t161 -124q-102 -65 -151.5 -145.5t-49.5 -182.5q0 -113 60 -200t173 -138z" />
    <glyph glyph-name="Ograve" unicode="&#xd2;" horiz-adv-x="1313" 
d="M70 547q0 178 53.5 345.5t152.5 297.5q85 112 207 172.5t265 60.5q228 0 361.5 -154.5t133.5 -420.5q0 -175 -53.5 -341.5t-151.5 -295.5q-89 -117 -207.5 -176.5t-263.5 -59.5q-232 0 -364.5 152.5t-132.5 419.5zM745 1333q-117 0 -218.5 -53.5t-170.5 -151.5
q-84 -118 -130 -270t-46 -311q0 -227 102 -355.5t283 -128.5q119 0 220 54t173 155q83 118 129 268.5t46 309.5q0 227 -103 355t-285 128zM887 1534h-72l-279 348h119z" />
    <glyph glyph-name="Uacute" unicode="&#xda;" horiz-adv-x="1350" 
d="M264 1399h103l-117 -770q-13 -90 -18 -140t-5 -90q0 -148 106 -242t273 -94q177 0 301.5 128t155.5 346l123 862h98l-113 -819q-41 -299 -190.5 -452t-398.5 -153q-205 0 -331 121.5t-126 317.5q0 27 3.5 61.5t14.5 116.5zM686 1534l238 348h119l-277 -348h-80z" />
    <glyph glyph-name="Ucircumflex" unicode="&#xdb;" horiz-adv-x="1350" 
d="M264 1399h103l-117 -770q-13 -90 -18 -140t-5 -90q0 -148 106 -242t273 -94q177 0 301.5 128t155.5 346l123 862h98l-113 -819q-41 -299 -190.5 -452t-398.5 -153q-205 0 -331 121.5t-126 317.5q0 27 3.5 61.5t14.5 116.5zM1067 1534h-69l-156 256l-242 -256h-79l278 348
h102z" />
    <glyph glyph-name="Ugrave" unicode="&#xd9;" horiz-adv-x="1350" 
d="M264 1399h103l-117 -770q-13 -90 -18 -140t-5 -90q0 -148 106 -242t273 -94q177 0 301.5 128t155.5 346l123 862h98l-113 -819q-41 -299 -190.5 -452t-398.5 -153q-205 0 -331 121.5t-126 317.5q0 27 3.5 61.5t14.5 116.5zM906 1534h-72l-279 348h119z" />
    <glyph glyph-name="dotlessi" unicode="&#x131;" horiz-adv-x="362" 
d="M117 0h-97l138 924h96z" />
    <glyph glyph-name="circumflex" unicode="&#x2c6;" 
d="M825 1055h-69l-156 256l-242 -256h-79l278 348h102z" />
    <glyph glyph-name="tilde" unicode="&#x2dc;" 
d="M834 1300q-30 -83 -70.5 -123t-95.5 -40q-15 0 -31 2t-31 6l-76 20l-22 6q-27 7 -35 7q-30 0 -52 -17t-38 -53h-64q29 81 70 122.5t94 41.5q11 0 26.5 -2.5t38.5 -7.5l75 -21q23 -6 35.5 -8t21.5 -2q32 0 53.5 17t35.5 52h65z" />
    <glyph glyph-name="macron" unicode="&#xaf;" 
d="M344 1163l14 94h455l-12 -94h-457z" />
    <glyph glyph-name="breve" unicode="&#x2d8;" 
d="M340 1355l66 1v-17q0 -70 39.5 -103.5t123.5 -33.5q88 0 147.5 38.5t92.5 115.5h68q-41 -131 -119.5 -194.5t-198.5 -63.5q-109 0 -165 55t-56 164q0 15 0.5 23.5t1.5 14.5z" />
    <glyph glyph-name="dotaccent" unicode="&#x2d9;" 
d="M496 1133l22 155h141l-24 -155h-139z" />
    <glyph glyph-name="ring" unicode="&#x2da;" 
d="M434 1268q0 -67 45.5 -111.5t112.5 -44.5t112.5 44.5t45.5 111.5t-46 113t-112 46q-67 0 -112.5 -45.5t-45.5 -113.5zM358 1270q0 98 68 165.5t166 67.5t165.5 -67.5t67.5 -165.5q0 -99 -67.5 -166.5t-165.5 -67.5t-166 67.5t-68 166.5z" />
    <glyph glyph-name="cedilla" unicode="&#xb8;" 
d="M145 -412l23 64q64 -18 116 -26.5t95 -8.5q69 0 107 29.5t38 83.5q0 51 -37.5 73.5t-124.5 22.5q-19 0 -30 -0.5t-20 -1.5l57 176h59l-37 -113h23q95 0 144.5 -38.5t49.5 -112.5q0 -87 -58 -138t-157 -51q-45 0 -107 10.5t-141 30.5z" />
    <glyph glyph-name="hungarumlaut" unicode="&#x2dd;" 
d="M623 1055l188 348h102l-229 -348h-61zM399 1055l170 348h103l-213 -348h-60z" />
    <glyph glyph-name="ogonek" unicode="&#x2db;" 
d="M446 0q-85 -73 -121 -129.5t-36 -112.5q0 -51 27 -72.5t94 -21.5h77l-16 -80h-57q-102 0 -151.5 38.5t-49.5 117.5q0 62 42.5 125t133.5 135h57z" />
    <glyph glyph-name="caron" unicode="&#x2c7;" 
d="M328 1403h69l156 -256l242 256h79l-278 -348h-102z" />
    <glyph glyph-name="Lslash" unicode="&#x141;" horiz-adv-x="862" 
d="M182 0h-108l88 588l-189 -109l17 101l188 110l105 709h108l-100 -668l319 184l-14 -100l-320 -184l-79 -537h632l-14 -94h-633z" />
    <glyph glyph-name="lslash" unicode="&#x142;" horiz-adv-x="383" 
d="M244 803l155 90l-14 -94l-156 -90l-106 -709h-90l98 662l-156 -91l13 95l157 90l97 643h90z" />
    <glyph glyph-name="Scaron" unicode="&#x160;" horiz-adv-x="811" 
d="M25 68l36 90q72 -45 135.5 -66.5t120.5 -21.5q124 0 207.5 81.5t83.5 200.5q0 129 -199 311q-8 7 -12 11q-164 150 -213 230.5t-49 168.5q0 148 111.5 248t279.5 100q55 0 115.5 -17.5t132.5 -55.5l-31 -84q-64 35 -119.5 52t-105.5 17q-123 0 -202.5 -75.5t-79.5 -190.5
q0 -117 199 -291q28 -24 42 -37q145 -128 190.5 -202t45.5 -156q0 -180 -110 -293t-286 -113q-73 0 -145.5 23t-146.5 70zM301 1882h69l156 -256l242 256h79l-278 -348h-102z" />
    <glyph glyph-name="scaron" unicode="&#x161;" horiz-adv-x="694" 
d="M-39 119l47 71q68 -66 136 -98.5t139 -32.5q88 0 145 45t57 113q0 91 -192 218q-9 6 -14 9q-149 99 -190.5 153t-41.5 120q0 98 80.5 161.5t208.5 63.5q78 0 149.5 -21.5t139.5 -66.5l-17 -92q-77 51 -147 76.5t-131 25.5q-84 0 -137.5 -39.5t-53.5 -99.5q0 -73 190 -198
q9 -6 13 -9q157 -103 200.5 -162t43.5 -135q0 -105 -84 -172t-217 -67q-98 0 -179 34t-145 103zM164 1403h69l156 -256l242 256h79l-278 -348h-102z" />
    <glyph glyph-name="Zcaron" unicode="&#x17d;" horiz-adv-x="1327" 
d="M1159 10h-1167v33l1163 1253h-944l18 93h1110v-35l-1163 -1252h993zM559 1882h69l156 -256l242 256h79l-278 -348h-102z" />
    <glyph glyph-name="zcaron" unicode="&#x17e;" horiz-adv-x="877" 
d="M717 10h-803v31l776 790h-610l16 84h754v-53l-756 -766h633zM254 1403h69l156 -256l242 256h79l-278 -348h-102z" />
    <glyph glyph-name="brokenbar" unicode="&#xa6;" 
d="M557 408v-758h-90v758h90zM557 1432v-758h-90v758h90z" />
    <glyph glyph-name="Eth" unicode="&#xd0;" horiz-adv-x="1331" 
d="M178 90h250q166 0 279.5 27.5t195.5 87.5q109 79 168 202.5t59 272.5q0 142 -54 268t-154 215q-86 76 -194 111t-257 35h-111l-84 -557h375l-14 -86h-373zM70 0l100 666h-174l12 86h174l97 647h186q148 0 258.5 -26t196.5 -81q157 -98 242 -258.5t85 -357.5
q0 -156 -61 -290.5t-174 -227.5q-102 -85 -231 -121.5t-378 -36.5h-333z" />
    <glyph glyph-name="eth" unicode="&#xf0;" horiz-adv-x="879" 
d="M563 903q-36 64 -74 119t-77 98l-230 -123l-35 68l218 115l-72.5 79l-79.5 82l61 58q41 -36 82.5 -78t87.5 -96l246 129l37 -68l-231 -121q138 -174 208 -332t70 -298q0 -237 -123.5 -395t-302.5 -158q-148 0 -233.5 103t-85.5 284q0 236 126.5 396.5t305.5 160.5
q28 0 54 -6t48 -17zM451 831q-133 0 -228.5 -134t-95.5 -328q0 -141 59.5 -220t163.5 -79q138 0 232 135.5t94 345.5q0 126 -62.5 203t-162.5 77z" />
    <glyph glyph-name="Yacute" unicode="&#xdd;" horiz-adv-x="860" 
d="M362 0h-98l115 727l-334 672h102l295 -574l451 574h117l-523 -672zM442 1534l238 348h119l-277 -348h-80z" />
    <glyph glyph-name="yacute" unicode="&#xfd;" horiz-adv-x="782" 
d="M35 -465h-98l262 492l-168 897h88l143 -774l412 774h98zM323 1055l238 348h119l-277 -348h-80z" />
    <glyph glyph-name="Thorn" unicode="&#xde;" horiz-adv-x="985" 
d="M231 430h168q205 0 301.5 75t96.5 234q0 147 -83 216t-259 69h-129zM53 0l221 1399h111l-43 -281h90q121 0 185.5 -11.5t109.5 -37.5q91 -53 137.5 -136.5t46.5 -193.5q0 -191 -127.5 -299t-355.5 -108h-211l-53 -332h-111z" />
    <glyph glyph-name="thorn" unicode="&#xfe;" horiz-adv-x="938" 
d="M72 -465h-97l181 1202q-56 -49 -106 -116.5t-66 -67.5q-4 0 -5 1t-2 5q0 36 55 114.5t140 151.5l86 574h96l-80 -516q46 30 100 44.5t120 14.5q139 0 238 -120t99 -296q0 -242 -148 -392t-388 -150q-28 0 -64 3.5t-86 12.5zM152 63l79 -7.5t43 -2.5q211 0 333 125.5
t122 341.5q0 157 -75.5 251.5t-198.5 94.5q-53 0 -100 -15t-91 -46z" />
    <glyph glyph-name="minus" unicode="&#x2212;" horiz-adv-x="1706" 
d="M1452 651v-82h-1198v82h1198z" />
    <glyph glyph-name="multiply" unicode="&#xd7;" horiz-adv-x="1706" 
d="M854 668l487 487l58 -57l-488 -488l488 -487l-58 -57l-487 487l-487 -487l-58 57l488 487l-488 488l58 57z" />
    <glyph glyph-name="onesuperior" unicode="&#xb9;" horiz-adv-x="682" 
d="M305 559h-63l137 840h63z" />
    <glyph glyph-name="twosuperior" unicode="&#xb2;" horiz-adv-x="682" 
d="M549 559h-537l340 365q78 84 121 163t43 138q0 57 -43 95t-108 38q-50 0 -103.5 -19t-118.5 -59l2 59q57 38 111.5 56t110.5 18q96 0 159.5 -53.5t63.5 -134.5q0 -66 -50.5 -155t-144.5 -189l-245 -263h405z" />
    <glyph glyph-name="threesuperior" unicode="&#xb3;" horiz-adv-x="682" 
d="M4 612l8 54q66 -35 120.5 -51.5t100.5 -16.5q103 0 174.5 61.5t71.5 149.5q0 80 -53 122t-162 50l6 39h21q108 0 174.5 50.5t66.5 131.5q0 71 -51.5 115.5t-134.5 44.5q-46 0 -94 -12.5t-102 -38.5l8 57q45 22 88.5 32.5t87.5 10.5q119 0 189.5 -55.5t70.5 -149.5
q0 -74 -48 -130t-136 -85q64 -23 100.5 -72t36.5 -112q0 -112 -88.5 -187t-220.5 -75q-59 0 -117 16.5t-117 50.5z" />
    <glyph glyph-name="onequarter" unicode="&#xbc;" horiz-adv-x="1645" 
d="M1384 309l60 350l-332 -350h272zM1397 0h-64l45 258h-350l2 33l471 491h27l-80 -473h143l-8 -51h-141zM1227 1421h106l-915 -1446h-109zM289 614h-60l131 783h62z" />
    <glyph glyph-name="onehalf" unicode="&#xbd;" horiz-adv-x="1645" 
d="M1518 0h-512l323 340q76 79 117 152.5t41 130.5q0 53 -42 87.5t-106 34.5q-47 0 -97.5 -17.5t-111.5 -55.5l3 57q53 35 104.5 51.5t105.5 16.5q93 0 153 -50t60 -126q0 -61 -48 -144t-138 -176l-235 -246h387zM1227 1421h106l-915 -1446h-109zM289 614h-60l131 783h62z
" />
    <glyph glyph-name="threequarters" unicode="&#xbe;" horiz-adv-x="1645" 
d="M1384 309l60 350l-332 -350h272zM1397 0h-64l45 258h-350l2 33l471 491h27l-80 -473h143l-8 -51h-141zM1227 1421h106l-915 -1446h-109zM4 664l8 49q66 -33 117 -48.5t94 -15.5q96 0 165 58.5t69 140.5q0 74 -51 114t-154 46l6 36h18q105 0 168.5 47.5t63.5 122.5
q0 67 -49.5 108.5t-128.5 41.5q-46 0 -92.5 -12t-96.5 -37l9 55q44 21 86 31t83 10q114 0 181 -52.5t67 -139.5q0 -70 -46 -122.5t-130 -78.5q61 -22 96 -68t35 -104q0 -104 -84.5 -174t-212.5 -70q-55 0 -110.5 15.5t-110.5 46.5z" />
    <glyph glyph-name="franc" unicode="&#x20a3;" horiz-adv-x="1556" 
d="M61 0l209 1399h719l-14 -86h-625l-82 -551h590l-14 -88h-588l-102 -674h-93zM1078 0h-93l140 924h90l-37 -242q120 151 191.5 206.5t136.5 55.5q22 0 43.5 -6.5t41.5 -19.5l-3 -80q-21 12 -42 18t-40 6q-38 0 -79.5 -24.5t-101.5 -81.5q-89 -88 -128 -154.5t-52 -146.5z
" />
    <glyph glyph-name="Gbreve" unicode="&#x11e;" horiz-adv-x="1278" 
d="M1186 586l-60 -473q-116 -70 -229.5 -104t-228.5 -34q-261 0 -426.5 172.5t-165.5 446.5q0 184 81.5 347t231.5 280q133 102 288.5 151t348.5 49q56 0 121.5 -5.5t142.5 -16.5l-10 -90q-64 10 -128.5 15t-129.5 5q-185 0 -340.5 -53.5t-269.5 -157.5
q-111 -101 -174.5 -241t-63.5 -283q0 -235 137 -379.5t361 -144.5q91 0 180.5 26.5t179.5 79.5l41 324h-328l13 86h428zM547 1834l66 1v-17q0 -70 39.5 -103.5t123.5 -33.5q88 0 147.5 38.5t92.5 115.5h68q-41 -131 -119.5 -194.5t-198.5 -63.5q-109 0 -165 55t-56 164
q0 15 0.5 23.5t1.5 14.5z" />
    <glyph glyph-name="gbreve" unicode="&#x11f;" horiz-adv-x="817" 
d="M322 -33q-157 -28 -240.5 -77.5t-83.5 -114.5q0 -72 79 -122t199 -50q149 0 240.5 50.5t91.5 129.5q0 63 -61 103.5t-225 80.5zM352 338q118 0 198.5 77.5t80.5 192.5q0 104 -63 170t-162 66q-122 0 -198.5 -78t-76.5 -201q0 -103 60.5 -165t160.5 -62zM225 -2
q-90 21 -136 59t-46 90q0 51 46 88t130 54q-91 46 -136.5 116t-45.5 164q0 169 105.5 262t297.5 93h404v-74h-236q57 -40 86 -99.5t29 -136.5q0 -121 -66.5 -208.5t-185.5 -122.5q-59 -17 -142.5 -29t-102.5 -18q-50 -17 -73.5 -36t-23.5 -44q0 -54 171 -98q61 -15 95 -25
q180 -52 243.5 -105t63.5 -139q0 -111 -120.5 -183.5t-313.5 -72.5q-155 0 -254.5 67t-99.5 169q0 76 74 131t237 98zM238 1355l66 1v-17q0 -70 39.5 -103.5t123.5 -33.5q88 0 147.5 38.5t92.5 115.5h68q-41 -131 -119.5 -194.5t-198.5 -63.5q-109 0 -165 55t-56 164
q0 15 0.5 23.5t1.5 14.5z" />
    <glyph glyph-name="Idotaccent" unicode="&#x130;" horiz-adv-x="432" 
d="M166 0h-105l209 1399h105zM279 1612l22 155h141l-24 -155h-139z" />
    <glyph glyph-name="Scedilla" unicode="&#x15e;" horiz-adv-x="811" 
d="M25 68l36 90q72 -45 135.5 -66.5t120.5 -21.5q124 0 207.5 81.5t83.5 200.5q0 129 -199 311q-8 7 -12 11q-164 150 -213 230.5t-49 168.5q0 148 111.5 248t279.5 100q55 0 115.5 -17.5t132.5 -55.5l-31 -84q-64 35 -119.5 52t-105.5 17q-123 0 -202.5 -75.5t-79.5 -190.5
q0 -117 199 -291q28 -24 42 -37q145 -128 190.5 -202t45.5 -156q0 -180 -110 -293t-286 -113q-73 0 -145.5 23t-146.5 70zM39 -412l23 64q64 -18 116 -26.5t95 -8.5q69 0 107 29.5t38 83.5q0 51 -37.5 73.5t-124.5 22.5q-19 0 -30 -0.5t-20 -1.5l57 176h59l-37 -113h23
q95 0 144.5 -38.5t49.5 -112.5q0 -87 -58 -138t-157 -51q-45 0 -107 10.5t-141 30.5z" />
    <glyph glyph-name="scedilla" unicode="&#x15f;" horiz-adv-x="694" 
d="M-39 119l47 71q68 -66 136 -98.5t139 -32.5q88 0 145 45t57 113q0 91 -192 218q-9 6 -14 9q-149 99 -190.5 153t-41.5 120q0 98 80.5 161.5t208.5 63.5q78 0 149.5 -21.5t139.5 -66.5l-17 -92q-77 51 -147 76.5t-131 25.5q-84 0 -137.5 -39.5t-53.5 -99.5q0 -73 190 -198
q9 -6 13 -9q157 -103 200.5 -162t43.5 -135q0 -105 -84 -172t-217 -67q-98 0 -179 34t-145 103zM-19 -412l23 64q64 -18 116 -26.5t95 -8.5q69 0 107 29.5t38 83.5q0 51 -37.5 73.5t-124.5 22.5q-19 0 -30 -0.5t-20 -1.5l57 176h59l-37 -113h23q95 0 144.5 -38.5
t49.5 -112.5q0 -87 -58 -138t-157 -51q-45 0 -107 10.5t-141 30.5z" />
    <glyph glyph-name="Cacute" unicode="&#x106;" horiz-adv-x="1174" 
d="M1034 86q-105 -56 -207 -83.5t-204 -27.5q-238 0 -394.5 172.5t-156.5 438.5q0 169 75.5 332.5t212.5 289.5q112 102 260 157.5t310 55.5q56 0 117 -5.5t124 -16.5l-14 -86q-63 10 -112 15t-89 5q-159 0 -296 -52t-242 -153q-112 -107 -176 -251t-64 -289
q0 -228 129 -371t334 -143q94 0 195.5 34t218.5 105zM692 1534l238 348h119l-277 -348h-80z" />
    <glyph glyph-name="cacute" unicode="&#x107;" horiz-adv-x="846" 
d="M711 137l-13 -94q-72 -31 -138 -46t-126 -15q-172 0 -280.5 115t-108.5 298q0 97 34 191.5t97 171.5q76 93 181 140.5t235 47.5q37 0 84 -7.5t104 -23.5l-14 -94q-56 15 -100.5 22t-81.5 7q-188 0 -314.5 -127.5t-126.5 -316.5q0 -153 87 -245.5t229 -92.5q53 0 115.5 17
t136.5 52zM393 1055l238 348h119l-277 -348h-80z" />
    <glyph glyph-name="Ccaron" unicode="&#x10c;" horiz-adv-x="1174" 
d="M1034 86q-105 -56 -207 -83.5t-204 -27.5q-238 0 -394.5 172.5t-156.5 438.5q0 169 75.5 332.5t212.5 289.5q112 102 260 157.5t310 55.5q56 0 117 -5.5t124 -16.5l-14 -86q-63 10 -112 15t-89 5q-159 0 -296 -52t-242 -153q-112 -107 -176 -251t-64 -289
q0 -228 129 -371t334 -143q94 0 195.5 34t218.5 105zM576 1882h69l156 -256l242 256h79l-278 -348h-102z" />
    <glyph glyph-name="ccaron" unicode="&#x10d;" horiz-adv-x="846" 
d="M711 137l-13 -94q-72 -31 -138 -46t-126 -15q-172 0 -280.5 115t-108.5 298q0 97 34 191.5t97 171.5q76 93 181 140.5t235 47.5q37 0 84 -7.5t104 -23.5l-14 -94q-56 15 -100.5 22t-81.5 7q-188 0 -314.5 -127.5t-126.5 -316.5q0 -153 87 -245.5t229 -92.5q53 0 115.5 17
t136.5 52zM277 1403h69l156 -256l242 256h79l-278 -348h-102z" />
    <glyph glyph-name="dcroat" unicode="&#x111;" horiz-adv-x="961" 
d="M639 70l115 786q-39 4 -68.5 6t-46.5 2q-227 0 -373.5 -130t-146.5 -328q0 -164 101.5 -252t289.5 -88q41 0 70.5 1t58.5 3zM909 1225h156l-12 -78h-154l-170 -1165h-125q-165 0 -247 14.5t-140 48.5q-92 54 -143 150.5t-51 216.5q0 228 172.5 379t443.5 151q17 0 75 -4
q34 -3 52 -4l33 213h-299l10 78h299l27 174h100z" />
    <glyph glyph-name="sfthyphen" unicode="&#xad;" horiz-adv-x="692" 
d="M66 418l14 88h473l-14 -88h-473z" />
    <glyph glyph-name="periodcentered" unicode="&#x2219;" horiz-adv-x="516" 
d="M166 700q0 39 27 66t65 27t65 -27t27 -66q0 -38 -27 -65t-65 -27t-65 27t-27 65z" />
    </font>
</defs>
</svg>
